<?xml version="1.0" encoding="utf-8"?>
<!-- Generator: Adobe Illustrator 14.0.0, SVG Export Plug-In . SVG Version: 6.00 Build 43363)  -->
<!DOCTYPE svg PUBLIC "-//W3C//DTD SVG 1.1//EN" "http://www.w3.org/Graphics/SVG/1.1/DTD/svg11.dtd">
<svg version="1.1" id="Calque_1" xmlns="http://www.w3.org/2000/svg" xmlns:xlink="http://www.w3.org/1999/xlink" x="0px" y="0px"
	 width="595.28px" height="841.89px" viewBox="0 0 595.28 841.89" enable-background="new 0 0 595.28 841.89" xml:space="preserve">
<path fill="#CCCCCB" d="M187.278,306.112l86.316-86.317c0,0,32.878,3.901,41.045,30.863c13.868,45.783-27.545,91.296-74.045,91.151
	S200.461,322.557,187.278,306.112z"/>
<path fill="#CCCCCB" d="M257.897,204.098l-86.316,86.317c0,0-56.44,16.701-56.44-31.136c0-35.501,47.94-96.023,94.44-95.878
	S244.713,187.652,257.897,204.098z"/>
<line fill="#FFFFFF" stroke="#000000" stroke-width="0.5" x1="134.14" y1="336.445" x2="134.14" y2="184.442"/>
<path d="M331.079,320.914l9.785,2.531h-6.553C334.312,322.601,332.949,321.382,331.079,320.914z"/>
<path d="M331.079,325.976l9.785-2.531h-6.553C334.312,324.289,332.949,325.507,331.079,325.976z"/>
<path d="M301.093,208.477l-5.13-8.708l4.634,4.634C300,204.999,300.102,206.825,301.093,208.477z"/>
<path d="M304.672,204.898l-8.709-5.129l4.634,4.634C301.192,203.805,303.018,203.907,304.672,204.898z"/>
<path d="M131.609,187.674l2.531-9.785v6.553C133.296,184.442,132.078,185.804,131.609,187.674z"/>
<path d="M136.671,187.674l-2.531-9.785v6.553C134.984,184.442,136.203,185.804,136.671,187.674z"/>
<g>
	<path d="M141.16,326.67c-0.122-0.19-0.314-0.519-0.357-0.561c-0.127-0.128-0.284-0.097-0.385,0.004
		c-0.08,0.08-0.145,0.257-0.051,0.446c0.029,0.07,1.062,1.731,1.199,1.963c0.165,0.258,0.277,0.399,0.404,0.526
		c0.078,0.078,0.092,0.093,0.127,0.128c0.203,0.544,0.201,0.986-0.086,1.273c-0.593,0.592-1.115,0.07-1.234-0.05
		c-0.226-0.226-0.465-0.538-0.996-1.741c-0.133-0.291-0.188-0.434-0.327-0.574c-0.317-0.317-0.811-0.348-1.152-0.006
		c-0.662,0.662,0.099,1.938,0.161,2.002c0.07,0.07,0.14,0.002,0.154-0.013c0.069-0.069,0.062-0.091-0.018-0.24
		c-0.475-0.849-0.424-1.34-0.182-1.583c0.062-0.062,0.182-0.166,0.407,0.061c0.175,0.175,0.3,0.446,0.373,0.613
		c0.538,1.126,0.782,1.531,1.05,1.8c0.643,0.642,1.361,0.417,1.889-0.111c0.121-0.12,0.451-0.45,0.246-1.22
		c0.629,0.262,1.155-0.182,1.367-0.394c0.528-0.528,0.396-1.282,0.158-1.885c-0.309-0.788-1.023-1.956-1.361-2.294
		c-0.385-0.385-0.674-0.308-0.789-0.193c-0.168,0.169-0.154,0.522,0.001,0.678c0.093,0.093,0.172,0.096,0.285,0.096
		c0.147,0.008,0.487,0.034,0.826,0.373c0.241,0.24,0.729,1.133,0.909,1.673c0.191,0.555,0.195,1.046-0.146,1.388
		c-0.327,0.326-0.727,0.303-1.13-0.1c-0.197-0.197-0.37-0.464-0.442-0.589L141.16,326.67z"/>
	<path d="M141.795,320.907l0.493-0.494c0.092-0.092,0.155-0.154,0.07-0.24c-0.056-0.055-0.119,0.009-0.203,0.093l-0.469,0.469
		l-0.574-0.938c-0.02-0.031-0.035-0.066-0.057-0.087c-0.09-0.091-0.231-0.093-0.33,0.005c-0.123,0.124-0.109,0.284-0.012,0.451
		c0.092,0.163-0.088-0.146,0.583,0.959l-0.503,0.502c-0.094,0.094-0.157,0.158-0.072,0.243c0.056,0.056,0.115-0.004,0.203-0.093
		l0.469-0.468l0.934,1.456c0.1,0.154,0.242,0.375,0.309,0.441c0.299,0.299,0.72,0.242,0.994-0.033
		c0.533-0.533,0.127-1.544,0.062-1.609c-0.066-0.065-0.129-0.002-0.143,0.012c-0.059,0.059-0.054,0.072-0.006,0.197
		c0.184,0.453,0.221,0.984-0.045,1.251c-0.102,0.102-0.236,0.103-0.418-0.079c-0.051-0.051-0.139-0.178-0.179-0.236L141.795,320.907
		z"/>
	<path d="M148.214,320.122c-0.142-0.227-0.633-1.041-0.139-1.534c0.035-0.035,0.204-0.205,0.422-0.282
		c-0.176,0.248-0.146,0.578,0.024,0.748c0.114,0.115,0.327,0.175,0.513-0.012c0.152-0.152,0.252-0.497-0.022-0.771
		c-0.355-0.355-0.854-0.048-1.089,0.185c-0.405,0.406-0.279,1.021-0.202,1.268c-0.638-0.287-1.085,0.02-1.288,0.223
		c-0.727,0.728-0.22,2.033-0.045,2.209c0.07,0.07,0.142,0,0.155-0.014c0.057-0.057,0.065-0.093,0.014-0.172
		c-0.515-0.993-0.228-1.637,0.013-1.876c0.133-0.134,0.444-0.315,0.855,0.095c0.219,0.22,0.574,0.814,1.307,2.067
		c0.326,0.552,0.377,1.097,0.067,1.407c-0.042,0.042-0.204,0.203-0.423,0.281c0.139-0.209,0.143-0.513-0.059-0.713
		c-0.193-0.193-0.402-0.099-0.506,0.004c-0.209,0.209-0.203,0.561,0.016,0.779c0.314,0.314,0.805,0.099,1.113-0.21
		c0.463-0.464,0.229-1.204,0.208-1.267c0.342,0.172,0.866,0.191,1.288-0.229c0.724-0.724,0.221-2.028,0.046-2.204
		c-0.069-0.069-0.133-0.006-0.155,0.016c-0.062,0.062-0.049,0.105-0.012,0.169c0.526,0.993,0.218,1.642-0.008,1.866
		c-0.274,0.275-0.614,0.162-0.855-0.08c-0.156-0.155-0.27-0.355-0.504-0.744L148.214,320.122z"/>
	<path d="M154.855,314.495l1.948-1.949c0.097-0.097,0.23-0.23,0.089-0.372c-0.141-0.141-0.275-0.007-0.371,0.089l-1.949,1.949
		l-1.961-1.961c-0.098-0.098-0.231-0.231-0.374-0.089c-0.141,0.141-0.007,0.274,0.091,0.372l1.961,1.961l-1.987,1.987
		c-0.101,0.1-0.235,0.235-0.094,0.376c0.142,0.142,0.276,0.006,0.376-0.093l1.988-1.987l1.961,1.961
		c0.098,0.098,0.23,0.231,0.371,0.091c0.143-0.143,0.01-0.276-0.088-0.374L154.855,314.495z"/>
	<path d="M157.532,305.466c-0.007-0.007-0.077-0.077-0.167,0.013c-0.158,0.159-0.611,0.718-0.776,0.911
		c-0.049,0.062-0.118,0.145,0.003,0.265c0.081,0.082,0.143,0.02,0.246-0.084c0.334-0.333,0.396-0.297,0.467-0.227
		c0.05,0.049,0.227,0.35,0.34,0.533l1.727,2.861c0.268,0.437,0.354,0.576,0.602,0.822c0.668,0.668,1.471,0.738,1.98,0.228
		c0.816-0.816,0.622-2.715-0.389-3.727c-0.641-0.64-1.491-0.756-2.045-0.203c-0.318,0.318-0.4,0.805-0.39,1.229L157.532,305.466z
		 M159.539,308.758c-0.115-0.198-0.131-0.213-0.146-0.352c-0.124-0.798,0.08-1.216,0.259-1.394c0.248-0.249,0.648-0.222,1.102,0.232
		c0.418,0.418,1.006,1.461,1.15,1.855c0.248,0.701,0.186,1.274-0.082,1.542c-0.234,0.234-0.654,0.271-1.179-0.253
		c-0.136-0.135-0.27-0.27-0.606-0.827L159.539,308.758z"/>
	<path d="M168.121,299.814c0.105-0.105,0.239-0.239,0.098-0.38c-0.141-0.141-0.275-0.007-0.373,0.091l-4.204,4.204
		c-0.1,0.1-0.231,0.232-0.091,0.373c0.142,0.142,0.273,0.009,0.381-0.097L168.121,299.814z M169.542,301.222
		c0.098-0.098,0.231-0.232,0.09-0.374c-0.141-0.141-0.275-0.007-0.38,0.098l-4.19,4.19c-0.106,0.106-0.238,0.239-0.098,0.38
		c0.142,0.142,0.275,0.008,0.373-0.09L169.542,301.222z"/>
	<path d="M174.031,294.074c-0.559-0.559-1.154-1.082-1.918-1.352c-0.996-0.347-1.686,0.118-1.982,0.415
		c-0.424,0.424-0.756,1.12-0.396,2.06c0.257,0.707,0.767,1.289,1.325,1.847c0.523,0.524,1.181,1.124,2.002,1.366
		c0.869,0.263,1.524-0.113,1.869-0.458c0.382-0.381,0.77-1.064,0.417-2.039C175.093,295.205,174.583,294.625,174.031,294.074
		L174.031,294.074z M174.791,297.811c-0.281,0.282-0.883,0.532-1.686-0.012c-0.5-0.343-1.146-0.989-1.561-1.403
		c-0.451-0.45-0.915-0.915-1.236-1.35c-0.698-0.974-0.223-1.578-0.042-1.759c0.237-0.237,0.841-0.587,1.674-0.027
		c0.465,0.321,1,0.856,1.442,1.298c0.525,0.526,1.004,1.004,1.375,1.533c0.559,0.776,0.359,1.397,0.035,1.722L174.791,297.811z"/>
	<path d="M144.177,283.051c0.039-0.139,0.039-0.16,0.039-0.229c0-0.178-0.141-0.268-0.291-0.268c-0.1,0-0.26,0.061-0.35,0.209
		c-0.02,0.051-0.1,0.359-0.141,0.539c-0.07,0.26-0.139,0.529-0.199,0.799l-0.451,1.797c-0.039,0.15-0.469,0.85-1.129,0.85
		c-0.51,0-0.621-0.439-0.621-0.809c0-0.459,0.168-1.076,0.504-1.955c0.158-0.408,0.197-0.518,0.197-0.717
		c0-0.449-0.316-0.82-0.809-0.82c-0.938,0-1.303,1.441-1.303,1.531c0,0.1,0.098,0.1,0.117,0.1c0.1,0,0.109-0.02,0.158-0.182
		c0.264-0.945,0.656-1.248,0.99-1.248c0.08,0,0.246,0,0.246,0.32c0,0.248-0.092,0.508-0.158,0.697
		c-0.373,1.057-0.543,1.627-0.543,2.096c0,0.887,0.621,1.186,1.203,1.186c0.383,0,0.719-0.166,0.996-0.438
		c-0.131,0.512-0.25,0.994-0.648,1.518c-0.26,0.334-0.637,0.621-1.096,0.621c-0.141,0-0.588-0.029-0.758-0.4
		c0.158,0,0.289,0,0.43-0.123c0.1-0.092,0.199-0.225,0.199-0.42c0-0.316-0.27-0.357-0.369-0.357c-0.23,0-0.559,0.158-0.559,0.641
		c0,0.492,0.438,0.857,1.057,0.857c1.025,0,2.051-0.9,2.33-2.018L144.177,283.051z"/>
	<path d="M154.196,283.549c0.148,0,0.338,0,0.338-0.201c0-0.199-0.189-0.199-0.328-0.199h-5.945c-0.141,0-0.328,0-0.328,0.199
		c0,0.201,0.188,0.201,0.338,0.201H154.196z M154.206,285.549c0.139,0,0.328,0,0.328-0.201c0-0.199-0.189-0.199-0.338-0.199h-5.926
		c-0.15,0-0.338,0-0.338,0.199c0,0.201,0.189,0.201,0.328,0.201H154.206z"/>
	<path d="M160.733,280.506c0-0.238,0-0.258-0.225-0.258c-0.609,0.6-1.475,0.6-1.787,0.6v0.3c0.199,0,0.791,0,1.312-0.247v5.168
		c0,0.359-0.029,0.48-0.934,0.48h-0.32v0.299h3.229v-0.299h-0.326c-0.918,0-0.949-0.109-0.949-0.477V280.506z"/>
	<path d="M237.255,330.448c0.041-0.141,0.041-0.16,0.041-0.229c0-0.178-0.143-0.268-0.291-0.268c-0.102,0-0.262,0.061-0.352,0.209
		c-0.02,0.051-0.1,0.359-0.139,0.539c-0.07,0.26-0.141,0.529-0.201,0.799l-0.449,1.797c-0.041,0.15-0.471,0.85-1.131,0.85
		c-0.51,0-0.619-0.439-0.619-0.809c0-0.459,0.168-1.076,0.502-1.955c0.158-0.408,0.197-0.518,0.197-0.717
		c0-0.449-0.315-0.82-0.809-0.82c-0.938,0-1.303,1.441-1.303,1.531c0,0.1,0.099,0.1,0.119,0.1c0.098,0,0.107-0.02,0.156-0.182
		c0.266-0.945,0.657-1.248,0.991-1.248c0.079,0,0.246,0,0.246,0.32c0,0.248-0.093,0.508-0.159,0.697
		c-0.373,1.057-0.542,1.625-0.542,2.096c0,0.887,0.621,1.186,1.202,1.186c0.385,0,0.721-0.166,0.996-0.439
		c-0.131,0.514-0.25,0.996-0.648,1.52c-0.258,0.334-0.637,0.621-1.096,0.621c-0.139,0-0.588-0.029-0.757-0.4
		c0.159,0,0.289,0,0.429-0.123c0.1-0.092,0.199-0.225,0.199-0.42c0-0.316-0.27-0.357-0.369-0.357c-0.229,0-0.558,0.156-0.558,0.641
		c0,0.492,0.438,0.857,1.056,0.857c1.025,0,2.053-0.9,2.332-2.018L237.255,330.448z"/>
	<path d="M247.374,330.944c0.15,0,0.34,0,0.34-0.199s-0.189-0.199-0.328-0.199h-5.947c-0.139,0-0.328,0-0.328,0.199
		s0.189,0.199,0.338,0.199H247.374z M247.386,332.944c0.139,0,0.328,0,0.328-0.199s-0.189-0.199-0.34-0.199h-5.926
		c-0.148,0-0.336,0-0.336,0.199s0.189,0.199,0.328,0.199H247.386z"/>
	<path d="M257.563,331.944c0.17,0,0.35,0,0.35-0.199s-0.18-0.199-0.35-0.199h-5.402c-0.17,0-0.35,0-0.35,0.199
		s0.18,0.199,0.35,0.199H257.563z"/>
	<path d="M261.612,327.903c0-0.238,0-0.258-0.225-0.258c-0.609,0.6-1.475,0.6-1.787,0.6v0.301c0.199,0,0.791,0,1.312-0.248v5.168
		c0,0.359-0.029,0.479-0.934,0.479h-0.32v0.301h3.229v-0.301h-0.326c-0.918,0-0.949-0.107-0.949-0.475V327.903z"/>
	<path d="M297.318,171.668l1.066-1.014c1.566-1.357,2.171-1.891,2.171-2.875c0-1.123-0.904-1.91-2.128-1.91
		c-1.131,0-1.872,0.893-1.872,1.756c0,0.543,0.475,0.543,0.504,0.543c0.162,0,0.496-0.113,0.496-0.504
		c0-0.248-0.169-0.496-0.495-0.496c-0.074,0-0.092,0-0.121,0c0.232-0.637,0.778-1,1.361-1c0.918,0,1.352,0.805,1.352,1.617
		c0,0.795-0.504,1.578-1.056,2.193l-1.933,2.123c-0.111,0.109-0.111,0.129-0.111,0.367h3.719l0.281-1.734h-0.198
		c-0.054,0.289-0.124,0.713-0.225,0.857c-0.073,0.076-0.747,0.076-0.974,0.076H297.318z"/>
	<g>
		
			<line fill="none" stroke="#000000" stroke-width="0.398" stroke-miterlimit="10" x1="289.291" y1="176.729" x2="307.762" y2="176.729"/>
	</g>
	<path d="M290.854,178.93c0-0.18,0-0.361-0.199-0.361c-0.2,0-0.2,0.182-0.2,0.361v9.279c0,0.18,0,0.359,0.2,0.359
		c0.199,0,0.199-0.18,0.199-0.359V178.93z"/>
	<path d="M293.655,178.93c0-0.18,0-0.361-0.2-0.361s-0.2,0.182-0.2,0.361v9.279c0,0.18,0,0.359,0.2,0.359s0.2-0.18,0.2-0.359V178.93
		z"/>
	<path d="M299.464,182.694c0.046-0.219,0.142-0.588,0.142-0.648c0-0.18-0.133-0.27-0.273-0.27c-0.114,0-0.285,0.08-0.352,0.279
		c-0.029,0.07-0.475,1.977-0.541,2.236c-0.066,0.301-0.085,0.479-0.085,0.658c0,0.111,0,0.131,0,0.18
		c-0.243,0.529-0.556,0.84-0.964,0.84c-0.835,0-0.835-0.738-0.835-0.908c0-0.318,0.05-0.707,0.526-1.936
		c0.111-0.299,0.173-0.438,0.173-0.637c0-0.449-0.327-0.82-0.81-0.82c-0.938,0-1.303,1.441-1.303,1.531c0,0.1,0.098,0.1,0.119,0.1
		c0.098,0,0.107-0.02,0.156-0.182c0.267-0.936,0.649-1.248,0.991-1.248c0.089,0,0.246,0.01,0.246,0.33
		c0,0.248-0.104,0.529-0.171,0.697c-0.416,1.178-0.529,1.637-0.529,2.016c0,0.908,0.668,1.256,1.414,1.256
		c0.17,0,0.639,0,1.036-0.688c0.259,0.629,0.946,0.688,1.246,0.688c0.745,0,1.185-0.625,1.445-1.221
		c0.338-0.775,0.658-2.105,0.658-2.584c0-0.545-0.258-0.695-0.421-0.695c-0.24,0-0.479,0.262-0.479,0.48
		c0,0.131,0.055,0.189,0.134,0.27c0.098,0.109,0.322,0.369,0.322,0.848c0,0.34-0.287,1.316-0.543,1.826
		c-0.256,0.527-0.6,0.877-1.083,0.877c-0.463,0-0.729-0.301-0.729-0.869c0-0.279,0.066-0.588,0.105-0.729L299.464,182.694z"/>
	<path d="M303.854,178.93c0-0.18,0-0.361-0.199-0.361c-0.2,0-0.2,0.182-0.2,0.361v9.279c0,0.18,0,0.359,0.2,0.359
		c0.199,0,0.199-0.18,0.199-0.359V178.93z"/>
	<path d="M306.556,178.93c0-0.18,0-0.361-0.201-0.361c-0.199,0-0.199,0.182-0.199,0.361v9.279c0,0.18,0,0.359,0.199,0.359
		c0.201,0,0.201-0.18,0.201-0.359V178.93z"/>
</g>
<line fill="#FFFFFF" stroke="#000000" stroke-width="0.5" stroke-dasharray="2,2" x1="177.075" y1="316.315" x2="300.389" y2="193"/>
<line fill="#FFFFFF" stroke="#314A97" x1="145.748" y1="331.944" x2="270.746" y2="206.947"/>
<line fill="#FFFFFF" stroke="#000000" stroke-width="0.5" stroke-dasharray="2,2" x1="171.581" y1="290.415" x2="291.201" y2="170.793"/>
<circle fill="#FFFFFF" stroke="#000000" stroke-width="0.5" cx="202.974" cy="290.415" r="4"/>
<circle fill="#FFFFFF" stroke="#000000" stroke-width="0.5" cx="207.807" cy="302.112" r="4"/>
<circle fill="#FFFFFF" stroke="#000000" stroke-width="0.5" cx="224.473" cy="306.112" r="4"/>
<circle fill="#FFFFFF" stroke="#000000" stroke-width="0.5" cx="250.306" cy="259.278" r="4"/>
<circle fill="#FFFFFF" stroke="#000000" stroke-width="0.5" cx="303.456" cy="265.945" r="4"/>
<circle cx="238.675" cy="223.778" r="4"/>
<circle cx="168.658" cy="234.945" r="4"/>
<circle cx="128.875" cy="254.658" r="4"/>
<circle cx="166.591" cy="259.279" r="4"/>
<circle cx="187.278" cy="259.279" r="4"/>
<circle cx="198.974" cy="212.785" r="4"/>
<circle cx="244.412" cy="203.776" r="4"/>
<circle cx="223.021" cy="173.87" r="4"/>
<circle fill="#FFFFFF" stroke="#000000" stroke-width="0.5" cx="265.306" cy="273.945" r="4"/>
<circle fill="#FFFFFF" stroke="#000000" stroke-width="0.5" cx="227.64" cy="265.944" r="4"/>
<line fill="#FFFFFF" stroke="#000000" stroke-width="0.25" x1="300.389" y1="204.196" x2="273.397" y2="177.204"/>
<path d="M273.412,173.64l5.13,8.708l-4.634-4.634C274.504,177.119,274.403,175.292,273.412,173.64z"/>
<path d="M269.833,177.219l8.709,5.129l-4.634-4.634C273.311,178.312,271.486,178.21,269.833,177.219z"/>
<line fill="#FFFFFF" stroke="#000000" stroke-width="0.25" x1="231.392" y1="215.994" x2="208.399" y2="193.002"/>
<path d="M229.418,210.441l5.129,8.708l-4.633-4.634C230.51,213.92,230.408,212.094,229.418,210.441z"/>
<path d="M225.838,214.021l8.709,5.129l-4.633-4.634C229.316,215.113,227.492,215.012,225.838,214.021z"/>
<line fill="#FFFFFF" stroke="#000000" stroke-width="0.5" x1="159.493" y1="323.445" x2="334.902" y2="323.445"/>
<line fill="#FFFFFF" stroke="#000000" stroke-width="0.5" x1="115.14" y1="323.445" x2="135.406" y2="323.445"/>
<line fill="#FFFFFF" stroke="#000000" stroke-width="0.25" x1="234.422" y1="272.455" x2="244.364" y2="282.397"/>
<path d="M236.396,278.007l-5.129-8.708l4.633,4.634C235.304,274.529,235.405,276.355,236.396,278.007z"/>
<path d="M239.976,274.428l-8.709-5.129l4.633,4.634C236.497,273.335,238.321,273.437,239.976,274.428z"/>
<line fill="#FFFFFF" stroke="#000000" stroke-width="0.25" x1="213.209" y1="290.965" x2="227.271" y2="290.964"/>
<path d="M218.532,293.495l-9.783-2.53l6.552,0C215.3,291.808,216.664,293.027,218.532,293.495z"/>
<path d="M218.533,288.433l-9.784,2.532l6.552,0C215.3,290.12,216.663,288.902,218.533,288.433z"/>
<g>
	<path d="M178.352,187.355c0.049-0.22,0.145-0.589,0.145-0.649c0-0.18-0.133-0.27-0.275-0.27c-0.113,0-0.283,0.08-0.351,0.28
		c-0.028,0.07-0.474,1.977-0.541,2.236c-0.065,0.3-0.086,0.479-0.086,0.659c0,0.11,0,0.13,0,0.18
		c-0.241,0.529-0.555,0.839-0.962,0.839c-0.837,0-0.837-0.738-0.837-0.908c0-0.319,0.051-0.708,0.526-1.935
		c0.112-0.299,0.174-0.439,0.174-0.638c0-0.449-0.326-0.819-0.809-0.819c-0.938,0-1.303,1.441-1.303,1.53c0,0.1,0.098,0.1,0.118,0.1
		c0.098,0,0.108-0.02,0.157-0.181c0.265-0.937,0.647-1.249,0.99-1.249c0.088,0,0.246,0.011,0.246,0.33
		c0,0.249-0.104,0.529-0.17,0.698c-0.416,1.177-0.529,1.636-0.529,2.015c0,0.908,0.666,1.257,1.414,1.257
		c0.17,0,0.638,0,1.035-0.688c0.26,0.629,0.946,0.688,1.245,0.688c0.747,0,1.187-0.626,1.445-1.222
		c0.339-0.775,0.659-2.106,0.659-2.583c0-0.546-0.26-0.695-0.422-0.695c-0.238,0-0.479,0.26-0.479,0.48
		c0,0.13,0.055,0.189,0.135,0.269c0.098,0.11,0.321,0.369,0.321,0.848c0,0.339-0.286,1.316-0.542,1.825
		c-0.256,0.529-0.602,0.878-1.084,0.878c-0.463,0-0.729-0.3-0.729-0.869c0-0.28,0.066-0.589,0.104-0.729L178.352,187.355z"/>
	
		<line fill="none" stroke="#000000" stroke-width="0.398" stroke-miterlimit="10" x1="173.729" y1="192.106" x2="181.129" y2="192.106"/>
	<path d="M182.877,183.831h0.698c0.13,0,0.22,0,0.22-0.122c0-0.078-0.092-0.078-0.209-0.078h-0.664l0.258-1.068
		c0.008-0.036,0.021-0.072,0.021-0.101c0-0.13-0.098-0.231-0.236-0.231c-0.176,0-0.279,0.123-0.328,0.311
		c-0.049,0.18,0.041-0.166-0.266,1.089h-0.711c-0.132,0-0.223,0-0.223,0.122c0,0.078,0.084,0.078,0.209,0.078h0.662l-0.369,1.69
		c-0.038,0.179-0.094,0.437-0.094,0.53c0,0.423,0.338,0.68,0.727,0.68c0.754,0,1.182-1.002,1.182-1.095
		c0-0.093-0.089-0.093-0.109-0.093c-0.081,0-0.088,0.014-0.143,0.136c-0.191,0.451-0.541,0.852-0.916,0.852
		c-0.144,0-0.24-0.093-0.24-0.351c0-0.071,0.027-0.222,0.041-0.293L182.877,183.831z"/>
	<path d="M187.971,187.714c0.061-0.261,0.289-1.183,0.986-1.183c0.051,0,0.289,0,0.498,0.099c-0.299,0.051-0.512,0.304-0.512,0.546
		c0,0.162,0.107,0.354,0.372,0.354c0.215,0,0.528-0.174,0.528-0.561c0-0.503-0.57-0.639-0.899-0.639
		c-0.575,0-0.921,0.525-1.04,0.753c-0.248-0.654-0.782-0.753-1.068-0.753c-1.029,0-1.594,1.282-1.594,1.53c0,0.1,0.1,0.1,0.12,0.1
		c0.08,0,0.11-0.02,0.13-0.111c0.339-1.067,0.996-1.319,1.335-1.319c0.188,0,0.538,0.091,0.538,0.672
		c0,0.311-0.17,0.982-0.538,2.386c-0.159,0.621-0.508,1.043-0.946,1.043c-0.06,0-0.289,0-0.498-0.1
		c0.246-0.05,0.463-0.263,0.463-0.546c0-0.273-0.215-0.354-0.361-0.354c-0.294,0-0.538,0.252-0.538,0.561
		c0,0.445,0.497,0.639,0.935,0.639c0.655,0,1.014-0.689,1.043-0.748c0.119,0.364,0.477,0.748,1.072,0.748
		c1.023,0,1.592-1.278,1.592-1.525c0-0.099-0.09-0.099-0.121-0.099c-0.088,0-0.108,0.04-0.129,0.111
		c-0.328,1.073-1.006,1.314-1.324,1.314c-0.389,0-0.549-0.321-0.549-0.662c0-0.22,0.061-0.441,0.17-0.882L187.971,187.714z"/>
	
		<line fill="none" stroke="#000000" stroke-width="0.398" stroke-miterlimit="10" x1="184.637" y1="192.106" x2="190.33" y2="192.106"/>
	<path d="M196.645,188.431h2.756c0.137,0,0.326,0,0.326-0.2s-0.189-0.2-0.326-0.2h-2.756v-2.773c0-0.139,0-0.327-0.201-0.327
		c-0.199,0-0.199,0.189-0.199,0.327v2.773h-2.811c-0.142,0-0.332,0-0.332,0.2s0.191,0.2,0.332,0.2h2.811v2.773
		c0,0.139,0,0.327,0.199,0.327c0.201,0,0.201-0.188,0.201-0.327V188.431z"/>
	<path d="M204.922,183.939c0-0.01,0-0.109-0.127-0.109c-0.225,0-0.939,0.076-1.193,0.095c-0.078,0.009-0.186,0.019-0.186,0.19
		c0,0.114,0.088,0.114,0.234,0.114c0.471,0,0.49,0.071,0.49,0.17c0,0.07-0.088,0.408-0.139,0.617l-0.801,3.245
		c-0.119,0.498-0.158,0.657-0.158,1.005c0,0.946,0.52,1.563,1.242,1.563c1.154,0,2.359-1.48,2.359-2.911
		c0-0.904-0.52-1.589-1.303-1.589c-0.449,0-0.852,0.287-1.145,0.594L204.922,183.939z M204.014,187.685
		c0.059-0.221,0.059-0.241,0.146-0.351c0.477-0.651,0.916-0.802,1.168-0.802c0.352,0,0.615,0.301,0.615,0.943
		c0,0.591-0.322,1.744-0.498,2.125c-0.32,0.671-0.77,1.032-1.15,1.032c-0.33,0-0.652-0.271-0.652-1.013c0-0.191,0-0.381,0.156-1.013
		L204.014,187.685z"/>
	<path d="M216.406,187.431c0.148,0,0.338,0,0.338-0.2s-0.189-0.2-0.328-0.2h-5.945c-0.141,0-0.328,0-0.328,0.2s0.188,0.2,0.338,0.2
		H216.406z M216.416,189.431c0.139,0,0.328,0,0.328-0.2s-0.189-0.2-0.338-0.2h-5.926c-0.15,0-0.338,0-0.338,0.2s0.189,0.2,0.328,0.2
		H216.416z"/>
	<path d="M222.943,184.389c0-0.238,0-0.258-0.225-0.258c-0.609,0.6-1.475,0.6-1.787,0.6v0.3c0.199,0,0.791,0,1.312-0.248v5.169
		c0,0.359-0.031,0.479-0.934,0.479h-0.32v0.3h3.229v-0.3h-0.326c-0.918,0-0.949-0.109-0.949-0.476V184.389z"/>
	<path d="M236.054,288.741c0.047-0.22,0.144-0.589,0.144-0.649c0-0.18-0.133-0.27-0.274-0.27c-0.115,0-0.285,0.08-0.352,0.28
		c-0.029,0.07-0.475,1.977-0.541,2.236c-0.066,0.301-0.086,0.479-0.086,0.659c0,0.11,0,0.13,0,0.18
		c-0.241,0.529-0.555,0.84-0.962,0.84c-0.837,0-0.837-0.738-0.837-0.908c0-0.319,0.051-0.708,0.527-1.935
		c0.111-0.3,0.172-0.439,0.172-0.639c0-0.449-0.326-0.819-0.809-0.819c-0.938,0-1.302,1.441-1.302,1.53c0,0.1,0.098,0.1,0.118,0.1
		c0.098,0,0.107-0.02,0.156-0.181c0.266-0.937,0.648-1.249,0.991-1.249c0.089,0,0.246,0.011,0.246,0.33
		c0,0.249-0.104,0.529-0.17,0.698c-0.416,1.177-0.53,1.636-0.53,2.015c0,0.908,0.668,1.257,1.414,1.257c0.17,0,0.639,0,1.036-0.688
		c0.259,0.629,0.946,0.688,1.245,0.688c0.747,0,1.186-0.626,1.445-1.222c0.339-0.775,0.658-2.106,0.658-2.583
		c0-0.546-0.259-0.695-0.42-0.695c-0.24,0-0.479,0.26-0.479,0.48c0,0.13,0.054,0.189,0.134,0.269
		c0.098,0.11,0.322,0.369,0.322,0.848c0,0.339-0.286,1.315-0.542,1.825c-0.257,0.528-0.601,0.878-1.084,0.878
		c-0.464,0-0.729-0.301-0.729-0.869c0-0.28,0.067-0.589,0.105-0.729L236.054,288.741z"/>
	<g>
		
			<line fill="none" stroke="#000000" stroke-width="0.398" stroke-miterlimit="10" x1="231.481" y1="293.466" x2="238.882" y2="293.466"/>
	</g>
	<path d="M240.579,285.116h0.698c0.13,0,0.219,0,0.219-0.122c0-0.078-0.091-0.078-0.209-0.078h-0.663l0.259-1.068
		c0.006-0.036,0.021-0.072,0.021-0.101c0-0.13-0.099-0.231-0.237-0.231c-0.175,0-0.279,0.123-0.328,0.311
		c-0.049,0.18,0.043-0.166-0.265,1.089h-0.711c-0.132,0-0.224,0-0.224,0.122c0,0.078,0.084,0.078,0.209,0.078h0.664l-0.371,1.69
		c-0.037,0.179-0.094,0.437-0.094,0.53c0,0.423,0.34,0.68,0.728,0.68c0.754,0,1.182-1.002,1.182-1.095
		c0-0.093-0.089-0.093-0.108-0.093c-0.082,0-0.09,0.014-0.145,0.136c-0.191,0.451-0.54,0.852-0.916,0.852
		c-0.143,0-0.238-0.093-0.238-0.351c0-0.071,0.026-0.222,0.041-0.293L240.579,285.116z"/>
	<path d="M245.673,289.099c0.06-0.26,0.289-1.183,0.985-1.183c0.05,0,0.289,0,0.498,0.099c-0.299,0.051-0.513,0.304-0.513,0.546
		c0,0.162,0.109,0.354,0.373,0.354c0.215,0,0.529-0.174,0.529-0.561c0-0.503-0.572-0.639-0.9-0.639c-0.575,0-0.922,0.525-1.04,0.753
		c-0.248-0.654-0.782-0.753-1.069-0.753c-1.029,0-1.593,1.282-1.593,1.53c0,0.1,0.1,0.1,0.12,0.1c0.08,0,0.109-0.02,0.13-0.11
		c0.339-1.067,0.996-1.319,1.335-1.319c0.189,0,0.538,0.091,0.538,0.672c0,0.311-0.17,0.982-0.538,2.386
		c-0.159,0.621-0.508,1.043-0.946,1.043c-0.06,0-0.289,0-0.498-0.101c0.246-0.05,0.464-0.263,0.464-0.546
		c0-0.272-0.217-0.354-0.363-0.354c-0.293,0-0.537,0.252-0.537,0.561c0,0.445,0.496,0.639,0.934,0.639
		c0.656,0,1.014-0.688,1.043-0.748c0.12,0.364,0.477,0.748,1.073,0.748c1.022,0,1.591-1.277,1.591-1.524c0-0.1-0.089-0.1-0.119-0.1
		c-0.09,0-0.109,0.04-0.13,0.111c-0.329,1.073-1.006,1.314-1.325,1.314c-0.388,0-0.548-0.321-0.548-0.662
		c0-0.22,0.06-0.441,0.169-0.882L245.673,289.099z"/>
	
		<line fill="none" stroke="#000000" stroke-width="0.398" stroke-miterlimit="10" x1="242.388" y1="293.466" x2="248.083" y2="293.466"/>
	<path d="M254.446,289.816h2.756c0.138,0,0.327,0,0.327-0.2s-0.189-0.2-0.327-0.2h-2.756v-2.773c0-0.139,0-0.327-0.2-0.327
		c-0.199,0-0.199,0.189-0.199,0.327v2.773h-2.812c-0.142,0-0.331,0-0.331,0.2s0.191,0.2,0.331,0.2h2.812v2.772
		c0,0.14,0,0.327,0.199,0.327c0.2,0,0.2-0.188,0.2-0.327V289.816z"/>
	<path d="M262.623,285.325c0-0.01,0-0.109-0.127-0.109c-0.225,0-0.938,0.076-1.191,0.095c-0.078,0.009-0.187,0.019-0.187,0.19
		c0,0.114,0.088,0.114,0.235,0.114c0.469,0,0.488,0.071,0.488,0.17c0,0.07-0.088,0.408-0.137,0.617l-0.802,3.245
		c-0.118,0.498-0.157,0.657-0.157,1.005c0,0.946,0.519,1.562,1.242,1.562c1.154,0,2.357-1.479,2.357-2.91
		c0-0.904-0.52-1.589-1.303-1.589c-0.449,0-0.85,0.287-1.145,0.594L262.623,285.325z M261.714,289.07
		c0.061-0.221,0.061-0.241,0.146-0.351c0.477-0.651,0.916-0.802,1.17-0.802c0.35,0,0.613,0.301,0.613,0.943
		c0,0.591-0.32,1.744-0.496,2.125c-0.322,0.671-0.771,1.032-1.15,1.032c-0.332,0-0.652-0.271-0.652-1.014
		c0-0.19,0-0.381,0.155-1.013L261.714,289.07z"/>
	<path d="M274.207,288.816c0.15,0,0.338,0,0.338-0.2s-0.188-0.2-0.328-0.2h-5.945c-0.139,0-0.328,0-0.328,0.2s0.189,0.2,0.338,0.2
		H274.207z M274.216,290.816c0.141,0,0.328,0,0.328-0.2s-0.188-0.2-0.338-0.2h-5.926c-0.148,0-0.336,0-0.336,0.2
		s0.188,0.2,0.328,0.2H274.216z"/>
	<path d="M284.396,289.816c0.17,0,0.35,0,0.35-0.2s-0.18-0.2-0.35-0.2h-5.402c-0.17,0-0.35,0-0.35,0.2s0.18,0.2,0.35,0.2H284.396z"
		/>
	<path d="M288.445,285.774c0-0.238,0-0.258-0.225-0.258c-0.609,0.6-1.475,0.6-1.787,0.6v0.3c0.199,0,0.791,0,1.312-0.248v5.168
		c0,0.359-0.031,0.479-0.934,0.479h-0.32v0.3h3.229v-0.3h-0.326c-0.918,0-0.949-0.109-0.949-0.477V285.774z"/>
	<path d="M317.367,224.458c0.047-0.22,0.144-0.589,0.144-0.649c0-0.18-0.133-0.27-0.274-0.27c-0.115,0-0.285,0.08-0.352,0.28
		c-0.029,0.069-0.475,1.977-0.541,2.235c-0.066,0.301-0.086,0.479-0.086,0.659c0,0.11,0,0.13,0,0.18
		c-0.241,0.529-0.555,0.84-0.962,0.84c-0.837,0-0.837-0.738-0.837-0.908c0-0.319,0.051-0.708,0.527-1.936
		c0.111-0.299,0.172-0.438,0.172-0.638c0-0.449-0.326-0.819-0.809-0.819c-0.938,0-1.302,1.441-1.302,1.53
		c0,0.101,0.098,0.101,0.118,0.101c0.098,0,0.107-0.021,0.156-0.182c0.266-0.937,0.648-1.249,0.991-1.249
		c0.089,0,0.246,0.011,0.246,0.33c0,0.249-0.104,0.529-0.17,0.698c-0.416,1.177-0.53,1.636-0.53,2.015
		c0,0.908,0.668,1.257,1.414,1.257c0.17,0,0.639,0,1.036-0.688c0.259,0.629,0.946,0.688,1.245,0.688
		c0.747,0,1.186-0.626,1.445-1.222c0.339-0.775,0.658-2.105,0.658-2.583c0-0.546-0.258-0.695-0.42-0.695
		c-0.24,0-0.479,0.261-0.479,0.48c0,0.13,0.054,0.188,0.134,0.269c0.098,0.11,0.322,0.369,0.322,0.849
		c0,0.339-0.286,1.315-0.542,1.825c-0.257,0.528-0.601,0.878-1.084,0.878c-0.464,0-0.729-0.301-0.729-0.869
		c0-0.28,0.067-0.589,0.105-0.729L317.367,224.458z"/>
	<g>
		
			<line fill="none" stroke="#000000" stroke-width="0.398" stroke-miterlimit="10" x1="312.806" y1="229.211" x2="320.207" y2="229.211"/>
	</g>
	<path d="M324.658,225.333c0.062-1.541,0.912-1.8,1.256-1.8c1.043,0,1.144,1.396,1.144,1.8H324.658z M324.658,225.533h2.846
		c0.224,0,0.255,0,0.255-0.2c0-1.01-0.545-2-1.804-2c-1.17,0-2.096,1.033-2.096,2.286c0,1.343,1.057,2.314,2.215,2.314
		c1.229,0,1.685-1.098,1.685-1.285c0-0.1-0.062-0.119-0.101-0.119c-0.069,0-0.084,0.062-0.1,0.145
		c-0.365,1.062-1.304,1.062-1.408,1.062c-0.521,0-0.938-0.305-1.179-0.68c-0.313-0.486-0.313-1.155-0.313-1.521V225.533z"/>
	<path d="M329.658,223.833h1.449v-0.3h-1.449v-1.8h-0.246c-0.01,0.801-0.303,1.846-1.265,1.886v0.215h0.81v2.754
		c0,1.228,0.938,1.348,1.303,1.348c0.716,0,0.999-0.703,0.999-1.337v-0.563h-0.2v0.56c0,0.754-0.312,1.142-0.699,1.142
		c-0.701,0-0.701-0.92-0.701-1.091V223.833z"/>
	<path d="M338.484,224.817c0.061-0.262,0.289-1.184,0.986-1.184c0.051,0,0.289,0,0.498,0.1c-0.299,0.051-0.512,0.304-0.512,0.546
		c0,0.162,0.107,0.354,0.373,0.354c0.215,0,0.527-0.174,0.527-0.561c0-0.503-0.57-0.64-0.898-0.64c-0.576,0-0.922,0.525-1.041,0.753
		c-0.248-0.653-0.781-0.753-1.068-0.753c-1.029,0-1.593,1.282-1.593,1.53c0,0.101,0.1,0.101,0.12,0.101
		c0.08,0,0.109-0.021,0.129-0.111c0.34-1.067,0.996-1.319,1.336-1.319c0.188,0,0.537,0.091,0.537,0.672
		c0,0.312-0.17,0.982-0.537,2.387c-0.16,0.621-0.508,1.043-0.947,1.043c-0.059,0-0.289,0-0.497-0.101
		c0.245-0.05,0.462-0.263,0.462-0.546c0-0.272-0.215-0.354-0.361-0.354c-0.293,0-0.537,0.252-0.537,0.561
		c0,0.445,0.496,0.639,0.934,0.639c0.656,0,1.014-0.688,1.043-0.748c0.119,0.364,0.477,0.748,1.072,0.748
		c1.023,0,1.592-1.277,1.592-1.524c0-0.099-0.09-0.099-0.121-0.099c-0.088,0-0.107,0.039-0.129,0.11
		c-0.328,1.073-1.006,1.314-1.324,1.314c-0.389,0-0.549-0.321-0.549-0.662c0-0.22,0.061-0.441,0.17-0.882L338.484,224.817z"/>
	<g>
		
			<line fill="none" stroke="#000000" stroke-width="0.398" stroke-miterlimit="10" x1="335.15" y1="229.211" x2="340.844" y2="229.211"/>
	</g>
	<path d="M349.113,225.533c0.172,0,0.354,0,0.354-0.2s-0.182-0.2-0.354-0.2h-4.256c0.121-1.34,1.275-2.3,2.691-2.3h1.566
		c0.17,0,0.352,0,0.352-0.2s-0.18-0.2-0.352-0.2h-1.582c-1.713,0-3.074,1.301-3.074,2.9s1.361,2.9,3.074,2.9h1.582
		c0.17,0,0.352,0,0.352-0.2s-0.182-0.2-0.352-0.2h-1.566c-1.416,0-2.57-0.96-2.691-2.3H349.113z"/>
	<path d="M355.658,224.632h0.363l1.52,2.364c0.102,0.163,0.344,0.561,0.455,0.713c0.07,0.122,0.1,0.122,0.334,0.122h1.396
		c0.182,0,0.334,0,0.334-0.154c0-0.067-0.059-0.129-0.148-0.146c-0.369-0.08-0.857-0.74-1.098-1.061
		c-0.068-0.1-0.566-0.76-1.234-1.84c0.854-0.16,1.678-0.54,1.678-1.729c0-1.391-1.449-1.87-2.611-1.87h-3.094
		c-0.178,0-0.336,0-0.336,0.153c0,0.146,0.201,0.146,0.285,0.146c0.602,0,0.656,0.072,0.656,0.576v5.05
		c0,0.504-0.055,0.575-0.656,0.575c-0.084,0-0.285,0-0.285,0.146c0,0.154,0.16,0.154,0.34,0.154h2.73c0.178,0,0.328,0,0.328-0.154
		c0-0.146-0.184-0.146-0.301-0.146c-0.611,0-0.654-0.083-0.654-0.593L355.658,224.632z M357.65,224.216
		c0.277-0.369,0.309-0.896,0.309-1.335c0-0.478-0.061-1.006-0.377-1.414c0.402,0.089,1.377,0.398,1.377,1.405
		C358.959,223.521,358.664,224.028,357.65,224.216L357.65,224.216z M355.658,221.872c0-0.209,0-0.539,0.656-0.539
		c0.898,0,1.344,0.349,1.344,1.525c0,1.284-0.328,1.475-2,1.475V221.872z M354.373,227.533c0.084-0.183,0.084-0.464,0.084-0.554
		v-5.091c0-0.101,0-0.373-0.084-0.555h1.137c-0.152,0.162-0.152,0.364-0.152,0.515v5.131c0,0.101,0,0.372,0.102,0.554H354.373z
		 M356.496,224.632c0.068,0.002,0.109,0.004,0.188,0.004c0.15,0,0.369,0.004,0.52,0.009c0.148,0.242,1.225,2.047,2.051,2.888h-0.965
		L356.496,224.632z"/>
	<path d="M364.24,219.045c0.008-0.014,0.027-0.105,0.027-0.114c0-0.034-0.027-0.1-0.111-0.1c-0.141,0-0.723,0.051-0.898,0.064
		c-0.057,0.006-0.156,0.012-0.156,0.146c0,0.089,0.1,0.089,0.184,0.089c0.338,0,0.338,0.052,0.338,0.11
		c0,0.051-0.016,0.095-0.029,0.161l-0.4,1.665c-0.146-0.244-0.385-0.437-0.723-0.437c-0.898,0-1.811,1.001-1.811,2.022
		c0,0.688,0.455,1.178,1.059,1.178c0.379,0,0.717-0.23,0.998-0.518c0.133,0.443,0.541,0.518,0.723,0.518
		c0.254,0,0.43-0.157,0.557-0.379c0.152-0.279,0.246-0.688,0.246-0.716c0-0.094-0.092-0.094-0.113-0.094
		c-0.098,0-0.105,0.029-0.154,0.223c-0.084,0.344-0.217,0.766-0.512,0.766c-0.184,0-0.232-0.156-0.232-0.348
		c0-0.135,0.014-0.199,0.035-0.291L364.24,219.045z M362.756,222.874c-0.047,0.198-0.201,0.34-0.354,0.475
		c-0.062,0.058-0.34,0.284-0.639,0.284c-0.256,0-0.506-0.184-0.506-0.688c0-0.376,0.201-1.155,0.361-1.439
		c0.318-0.566,0.674-0.674,0.867-0.674c0.486,0,0.617,0.539,0.617,0.617c0,0.029-0.014,0.078-0.02,0.099L362.756,222.874z"/>
</g>
</svg>
