<?xml version="1.0" encoding="UTF-8" standalone="no"?>
<!-- Generator: Adobe Illustrator 14.0.0, SVG Export Plug-In . SVG Version: 6.00 Build 43363)  -->

<svg
   xmlns:dc="http://purl.org/dc/elements/1.1/"
   xmlns:cc="http://creativecommons.org/ns#"
   xmlns:rdf="http://www.w3.org/1999/02/22-rdf-syntax-ns#"
   xmlns:svg="http://www.w3.org/2000/svg"
   xmlns="http://www.w3.org/2000/svg"
   xmlns:sodipodi="http://sodipodi.sourceforge.net/DTD/sodipodi-0.dtd"
   xmlns:inkscape="http://www.inkscape.org/namespaces/inkscape"
   version="1.1"
   id="Calque_1"
   x="0px"
   y="0px"
   width="249.142"
   height="178.40862"
   viewBox="0 0 249.14199 178.40861"
   enable-background="new 0 0 595.28 841.89"
   xml:space="preserve"
   inkscape:version="0.48.3.1 r9886"
   sodipodi:docname="separateur.svg"><metadata
   id="metadata199"><rdf:RDF><cc:Work
       rdf:about=""><dc:format>image/svg+xml</dc:format><dc:type
         rdf:resource="http://purl.org/dc/dcmitype/StillImage" /></cc:Work></rdf:RDF></metadata><defs
   id="defs197" /><sodipodi:namedview
   pagecolor="#ffffff"
   bordercolor="#666666"
   borderopacity="1"
   objecttolerance="10"
   gridtolerance="10"
   guidetolerance="10"
   inkscape:pageopacity="0"
   inkscape:pageshadow="2"
   inkscape:window-width="640"
   inkscape:window-height="480"
   id="namedview195"
   showgrid="false"
   fit-margin-top="0"
   fit-margin-left="0"
   fit-margin-right="0"
   fit-margin-bottom="0"
   inkscape:zoom="0.28032165"
   inkscape:cx="120.08672"
   inkscape:cy="-79.135656"
   inkscape:window-x="0"
   inkscape:window-y="0"
   inkscape:window-maximized="0"
   inkscape:current-layer="Calque_1" />
<path
   d="m 72.152991,142.71126 86.315999,-86.317 c 0,0 32.878,3.901 41.045,30.863 13.868,45.783 -27.545,91.296 -74.045,91.151 -46.499999,-0.145 -40.132999,-19.252 -53.315999,-35.697 z"
   id="path3"
   inkscape:connector-curvature="0"
   style="fill:#cccccb" />
<path
   d="m 142.77199,40.69726 -86.315999,86.317 c 0,0 -56.44000047,16.701 -56.44000047,-31.136 0,-35.501 47.94000047,-96.02299993 94.44000047,-95.87799993055 C 140.95599,0.14526007 129.58799,24.25126 142.77199,40.69726 z"
   id="path5"
   inkscape:connector-curvature="0"
   style="fill:#cccccb" />
<line
   x1="19.01499"
   y1="173.04427"
   x2="19.01499"
   y2="21.041262"
   id="line7"
   style="fill:#ffffff;stroke:#000000;stroke-width:0.5" />
<path
   d="m 215.95399,157.51326 9.785,2.531 h -6.553 c 0.001,-0.844 -1.362,-2.063 -3.232,-2.531 z"
   id="path9"
   inkscape:connector-curvature="0" />
<path
   d="m 215.95399,162.57526 9.785,-2.531 h -6.553 c 0.001,0.844 -1.362,2.062 -3.232,2.531 z"
   id="path11"
   inkscape:connector-curvature="0" />
<path
   d="m 185.96799,45.07626 -5.13,-8.708 4.634,4.634 c -0.597,0.596 -0.495,2.422 0.496,4.074 z"
   id="path13"
   inkscape:connector-curvature="0" />
<path
   d="m 189.54699,41.49726 -8.709,-5.129 4.634,4.634 c 0.595,-0.598 2.421,-0.496 4.075,0.495 z"
   id="path15"
   inkscape:connector-curvature="0" />
<path
   d="m 16.483991,24.27326 2.531,-9.785 v 6.553 c -0.844,0 -2.062,1.362 -2.531,3.232 z"
   id="path17"
   inkscape:connector-curvature="0" />
<path
   d="m 21.545991,24.27326 -2.531,-9.785 v 6.553 c 0.844,0 2.063,1.362 2.531,3.232 z"
   id="path19"
   inkscape:connector-curvature="0" />
<g
   id="g21"
   transform="translate(-115.12501,-163.40074)">
	<path
   d="m 141.16,326.67 c -0.122,-0.19 -0.314,-0.519 -0.357,-0.561 -0.127,-0.128 -0.284,-0.097 -0.385,0.004 -0.08,0.08 -0.145,0.257 -0.051,0.446 0.029,0.07 1.062,1.731 1.199,1.963 0.165,0.258 0.277,0.399 0.404,0.526 0.078,0.078 0.092,0.093 0.127,0.128 0.203,0.544 0.201,0.986 -0.086,1.273 -0.593,0.592 -1.115,0.07 -1.234,-0.05 -0.226,-0.226 -0.465,-0.538 -0.996,-1.741 -0.133,-0.291 -0.188,-0.434 -0.327,-0.574 -0.317,-0.317 -0.811,-0.348 -1.152,-0.006 -0.662,0.662 0.099,1.938 0.161,2.002 0.07,0.07 0.14,0.002 0.154,-0.013 0.069,-0.069 0.062,-0.091 -0.018,-0.24 -0.475,-0.849 -0.424,-1.34 -0.182,-1.583 0.062,-0.062 0.182,-0.166 0.407,0.061 0.175,0.175 0.3,0.446 0.373,0.613 0.538,1.126 0.782,1.531 1.05,1.8 0.643,0.642 1.361,0.417 1.889,-0.111 0.121,-0.12 0.451,-0.45 0.246,-1.22 0.629,0.262 1.155,-0.182 1.367,-0.394 0.528,-0.528 0.396,-1.282 0.158,-1.885 -0.309,-0.788 -1.023,-1.956 -1.361,-2.294 -0.385,-0.385 -0.674,-0.308 -0.789,-0.193 -0.168,0.169 -0.154,0.522 0.001,0.678 0.093,0.093 0.172,0.096 0.285,0.096 0.147,0.008 0.487,0.034 0.826,0.373 0.241,0.24 0.729,1.133 0.909,1.673 0.191,0.555 0.195,1.046 -0.146,1.388 -0.327,0.326 -0.727,0.303 -1.13,-0.1 -0.197,-0.197 -0.37,-0.464 -0.442,-0.589 l -0.9,-1.47 z"
   id="path23"
   inkscape:connector-curvature="0" />
	<path
   d="m 141.795,320.907 0.493,-0.494 c 0.092,-0.092 0.155,-0.154 0.07,-0.24 -0.056,-0.055 -0.119,0.009 -0.203,0.093 l -0.469,0.469 -0.574,-0.938 c -0.02,-0.031 -0.035,-0.066 -0.057,-0.087 -0.09,-0.091 -0.231,-0.093 -0.33,0.005 -0.123,0.124 -0.109,0.284 -0.012,0.451 0.092,0.163 -0.088,-0.146 0.583,0.959 l -0.503,0.502 c -0.094,0.094 -0.157,0.158 -0.072,0.243 0.056,0.056 0.115,-0.004 0.203,-0.093 l 0.469,-0.468 0.934,1.456 c 0.1,0.154 0.242,0.375 0.309,0.441 0.299,0.299 0.72,0.242 0.994,-0.033 0.533,-0.533 0.127,-1.544 0.062,-1.609 -0.066,-0.065 -0.129,-0.002 -0.143,0.012 -0.059,0.059 -0.054,0.072 -0.006,0.197 0.184,0.453 0.221,0.984 -0.045,1.251 -0.102,0.102 -0.236,0.103 -0.418,-0.079 -0.051,-0.051 -0.139,-0.178 -0.179,-0.236 l -1.106,-1.802 z"
   id="path25"
   inkscape:connector-curvature="0" />
	<path
   d="m 148.214,320.122 c -0.142,-0.227 -0.633,-1.041 -0.139,-1.534 0.035,-0.035 0.204,-0.205 0.422,-0.282 -0.176,0.248 -0.146,0.578 0.024,0.748 0.114,0.115 0.327,0.175 0.513,-0.012 0.152,-0.152 0.252,-0.497 -0.022,-0.771 -0.355,-0.355 -0.854,-0.048 -1.089,0.185 -0.405,0.406 -0.279,1.021 -0.202,1.268 -0.638,-0.287 -1.085,0.02 -1.288,0.223 -0.727,0.728 -0.22,2.033 -0.045,2.209 0.07,0.07 0.142,0 0.155,-0.014 0.057,-0.057 0.065,-0.093 0.014,-0.172 -0.515,-0.993 -0.228,-1.637 0.013,-1.876 0.133,-0.134 0.444,-0.315 0.855,0.095 0.219,0.22 0.574,0.814 1.307,2.067 0.326,0.552 0.377,1.097 0.067,1.407 -0.042,0.042 -0.204,0.203 -0.423,0.281 0.139,-0.209 0.143,-0.513 -0.059,-0.713 -0.193,-0.193 -0.402,-0.099 -0.506,0.004 -0.209,0.209 -0.203,0.561 0.016,0.779 0.314,0.314 0.805,0.099 1.113,-0.21 0.463,-0.464 0.229,-1.204 0.208,-1.267 0.342,0.172 0.866,0.191 1.288,-0.229 0.724,-0.724 0.221,-2.028 0.046,-2.204 -0.069,-0.069 -0.133,-0.006 -0.155,0.016 -0.062,0.062 -0.049,0.105 -0.012,0.169 0.526,0.993 0.218,1.642 -0.008,1.866 -0.274,0.275 -0.614,0.162 -0.855,-0.08 -0.156,-0.155 -0.27,-0.355 -0.504,-0.744 l -0.734,-1.209 z"
   id="path27"
   inkscape:connector-curvature="0" />
	<path
   d="m 154.855,314.495 1.948,-1.949 c 0.097,-0.097 0.23,-0.23 0.089,-0.372 -0.141,-0.141 -0.275,-0.007 -0.371,0.089 l -1.949,1.949 -1.961,-1.961 c -0.098,-0.098 -0.231,-0.231 -0.374,-0.089 -0.141,0.141 -0.007,0.274 0.091,0.372 l 1.961,1.961 -1.987,1.987 c -0.101,0.1 -0.235,0.235 -0.094,0.376 0.142,0.142 0.276,0.006 0.376,-0.093 l 1.988,-1.987 1.961,1.961 c 0.098,0.098 0.23,0.231 0.371,0.091 0.143,-0.143 0.01,-0.276 -0.088,-0.374 l -1.961,-1.961 z"
   id="path29"
   inkscape:connector-curvature="0" />
	<path
   d="m 157.532,305.466 c -0.007,-0.007 -0.077,-0.077 -0.167,0.013 -0.158,0.159 -0.611,0.718 -0.776,0.911 -0.049,0.062 -0.118,0.145 0.003,0.265 0.081,0.082 0.143,0.02 0.246,-0.084 0.334,-0.333 0.396,-0.297 0.467,-0.227 0.05,0.049 0.227,0.35 0.34,0.533 l 1.727,2.861 c 0.268,0.437 0.354,0.576 0.602,0.822 0.668,0.668 1.471,0.738 1.98,0.228 0.816,-0.816 0.622,-2.715 -0.389,-3.727 -0.641,-0.64 -1.491,-0.756 -2.045,-0.203 -0.318,0.318 -0.4,0.805 -0.39,1.229 l -1.598,-2.621 z m 2.007,3.292 c -0.115,-0.198 -0.131,-0.213 -0.146,-0.352 -0.124,-0.798 0.08,-1.216 0.259,-1.394 0.248,-0.249 0.648,-0.222 1.102,0.232 0.418,0.418 1.006,1.461 1.15,1.855 0.248,0.701 0.186,1.274 -0.082,1.542 -0.234,0.234 -0.654,0.271 -1.179,-0.253 -0.136,-0.135 -0.27,-0.27 -0.606,-0.827 l -0.498,-0.803 z"
   id="path31"
   inkscape:connector-curvature="0" />
	<path
   d="m 168.121,299.814 c 0.105,-0.105 0.239,-0.239 0.098,-0.38 -0.141,-0.141 -0.275,-0.007 -0.373,0.091 l -4.204,4.204 c -0.1,0.1 -0.231,0.232 -0.091,0.373 0.142,0.142 0.273,0.009 0.381,-0.097 l 4.189,-4.191 z m 1.421,1.408 c 0.098,-0.098 0.231,-0.232 0.09,-0.374 -0.141,-0.141 -0.275,-0.007 -0.38,0.098 l -4.19,4.19 c -0.106,0.106 -0.238,0.239 -0.098,0.38 0.142,0.142 0.275,0.008 0.373,-0.09 l 4.205,-4.204 z"
   id="path33"
   inkscape:connector-curvature="0" />
	<path
   d="m 174.031,294.074 c -0.559,-0.559 -1.154,-1.082 -1.918,-1.352 -0.996,-0.347 -1.686,0.118 -1.982,0.415 -0.424,0.424 -0.756,1.12 -0.396,2.06 0.257,0.707 0.767,1.289 1.325,1.847 0.523,0.524 1.181,1.124 2.002,1.366 0.869,0.263 1.524,-0.113 1.869,-0.458 0.382,-0.381 0.77,-1.064 0.417,-2.039 -0.255,-0.708 -0.765,-1.288 -1.317,-1.839 l 0,0 z m 0.76,3.737 c -0.281,0.282 -0.883,0.532 -1.686,-0.012 -0.5,-0.343 -1.146,-0.989 -1.561,-1.403 -0.451,-0.45 -0.915,-0.915 -1.236,-1.35 -0.698,-0.974 -0.223,-1.578 -0.042,-1.759 0.237,-0.237 0.841,-0.587 1.674,-0.027 0.465,0.321 1,0.856 1.442,1.298 0.525,0.526 1.004,1.004 1.375,1.533 0.559,0.776 0.359,1.397 0.035,1.722 l -0.001,-0.002 z"
   id="path35"
   inkscape:connector-curvature="0" />
	<path
   d="m 144.177,283.051 c 0.039,-0.139 0.039,-0.16 0.039,-0.229 0,-0.178 -0.141,-0.268 -0.291,-0.268 -0.1,0 -0.26,0.061 -0.35,0.209 -0.02,0.051 -0.1,0.359 -0.141,0.539 -0.07,0.26 -0.139,0.529 -0.199,0.799 l -0.451,1.797 c -0.039,0.15 -0.469,0.85 -1.129,0.85 -0.51,0 -0.621,-0.439 -0.621,-0.809 0,-0.459 0.168,-1.076 0.504,-1.955 0.158,-0.408 0.197,-0.518 0.197,-0.717 0,-0.449 -0.316,-0.82 -0.809,-0.82 -0.938,0 -1.303,1.441 -1.303,1.531 0,0.1 0.098,0.1 0.117,0.1 0.1,0 0.109,-0.02 0.158,-0.182 0.264,-0.945 0.656,-1.248 0.99,-1.248 0.08,0 0.246,0 0.246,0.32 0,0.248 -0.092,0.508 -0.158,0.697 -0.373,1.057 -0.543,1.627 -0.543,2.096 0,0.887 0.621,1.186 1.203,1.186 0.383,0 0.719,-0.166 0.996,-0.438 -0.131,0.512 -0.25,0.994 -0.648,1.518 -0.26,0.334 -0.637,0.621 -1.096,0.621 -0.141,0 -0.588,-0.029 -0.758,-0.4 0.158,0 0.289,0 0.43,-0.123 0.1,-0.092 0.199,-0.225 0.199,-0.42 0,-0.316 -0.27,-0.357 -0.369,-0.357 -0.23,0 -0.559,0.158 -0.559,0.641 0,0.492 0.438,0.857 1.057,0.857 1.025,0 2.051,-0.9 2.33,-2.018 l 0.959,-3.777 z"
   id="path37"
   inkscape:connector-curvature="0" />
	<path
   d="m 154.196,283.549 c 0.148,0 0.338,0 0.338,-0.201 0,-0.199 -0.189,-0.199 -0.328,-0.199 h -5.945 c -0.141,0 -0.328,0 -0.328,0.199 0,0.201 0.188,0.201 0.338,0.201 h 5.925 z m 0.01,2 c 0.139,0 0.328,0 0.328,-0.201 0,-0.199 -0.189,-0.199 -0.338,-0.199 h -5.926 c -0.15,0 -0.338,0 -0.338,0.199 0,0.201 0.189,0.201 0.328,0.201 h 5.946 z"
   id="path39"
   inkscape:connector-curvature="0" />
	<path
   d="m 160.733,280.506 c 0,-0.238 0,-0.258 -0.225,-0.258 -0.609,0.6 -1.475,0.6 -1.787,0.6 v 0.3 c 0.199,0 0.791,0 1.312,-0.247 v 5.168 c 0,0.359 -0.029,0.48 -0.934,0.48 h -0.32 v 0.299 h 3.229 v -0.299 h -0.326 c -0.918,0 -0.949,-0.109 -0.949,-0.477 v -5.566 z"
   id="path41"
   inkscape:connector-curvature="0" />
	<path
   d="m 237.255,330.448 c 0.041,-0.141 0.041,-0.16 0.041,-0.229 0,-0.178 -0.143,-0.268 -0.291,-0.268 -0.102,0 -0.262,0.061 -0.352,0.209 -0.02,0.051 -0.1,0.359 -0.139,0.539 -0.07,0.26 -0.141,0.529 -0.201,0.799 l -0.449,1.797 c -0.041,0.15 -0.471,0.85 -1.131,0.85 -0.51,0 -0.619,-0.439 -0.619,-0.809 0,-0.459 0.168,-1.076 0.502,-1.955 0.158,-0.408 0.197,-0.518 0.197,-0.717 0,-0.449 -0.315,-0.82 -0.809,-0.82 -0.938,0 -1.303,1.441 -1.303,1.531 0,0.1 0.099,0.1 0.119,0.1 0.098,0 0.107,-0.02 0.156,-0.182 0.266,-0.945 0.657,-1.248 0.991,-1.248 0.079,0 0.246,0 0.246,0.32 0,0.248 -0.093,0.508 -0.159,0.697 -0.373,1.057 -0.542,1.625 -0.542,2.096 0,0.887 0.621,1.186 1.202,1.186 0.385,0 0.721,-0.166 0.996,-0.439 -0.131,0.514 -0.25,0.996 -0.648,1.52 -0.258,0.334 -0.637,0.621 -1.096,0.621 -0.139,0 -0.588,-0.029 -0.757,-0.4 0.159,0 0.289,0 0.429,-0.123 0.1,-0.092 0.199,-0.225 0.199,-0.42 0,-0.316 -0.27,-0.357 -0.369,-0.357 -0.229,0 -0.558,0.156 -0.558,0.641 0,0.492 0.438,0.857 1.056,0.857 1.025,0 2.053,-0.9 2.332,-2.018 l 0.957,-3.778 z"
   id="path43"
   inkscape:connector-curvature="0" />
	<path
   d="m 247.374,330.944 c 0.15,0 0.34,0 0.34,-0.199 0,-0.199 -0.189,-0.199 -0.328,-0.199 h -5.947 c -0.139,0 -0.328,0 -0.328,0.199 0,0.199 0.189,0.199 0.338,0.199 h 5.925 z m 0.012,2 c 0.139,0 0.328,0 0.328,-0.199 0,-0.199 -0.189,-0.199 -0.34,-0.199 h -5.926 c -0.148,0 -0.336,0 -0.336,0.199 0,0.199 0.189,0.199 0.328,0.199 h 5.946 z"
   id="path45"
   inkscape:connector-curvature="0" />
	<path
   d="m 257.563,331.944 c 0.17,0 0.35,0 0.35,-0.199 0,-0.199 -0.18,-0.199 -0.35,-0.199 h -5.402 c -0.17,0 -0.35,0 -0.35,0.199 0,0.199 0.18,0.199 0.35,0.199 h 5.402 z"
   id="path47"
   inkscape:connector-curvature="0" />
	<path
   d="m 261.612,327.903 c 0,-0.238 0,-0.258 -0.225,-0.258 -0.609,0.6 -1.475,0.6 -1.787,0.6 v 0.301 c 0.199,0 0.791,0 1.312,-0.248 v 5.168 c 0,0.359 -0.029,0.479 -0.934,0.479 h -0.32 v 0.301 h 3.229 v -0.301 h -0.326 c -0.918,0 -0.949,-0.107 -0.949,-0.475 v -5.567 z"
   id="path49"
   inkscape:connector-curvature="0" />
	<path
   d="m 297.318,171.668 1.066,-1.014 c 1.566,-1.357 2.171,-1.891 2.171,-2.875 0,-1.123 -0.904,-1.91 -2.128,-1.91 -1.131,0 -1.872,0.893 -1.872,1.756 0,0.543 0.475,0.543 0.504,0.543 0.162,0 0.496,-0.113 0.496,-0.504 0,-0.248 -0.169,-0.496 -0.495,-0.496 -0.074,0 -0.092,0 -0.121,0 0.232,-0.637 0.778,-1 1.361,-1 0.918,0 1.352,0.805 1.352,1.617 0,0.795 -0.504,1.578 -1.056,2.193 l -1.933,2.123 c -0.111,0.109 -0.111,0.129 -0.111,0.367 h 3.719 l 0.281,-1.734 h -0.198 c -0.054,0.289 -0.124,0.713 -0.225,0.857 -0.073,0.076 -0.747,0.076 -0.974,0.076 h -1.837 z"
   id="path51"
   inkscape:connector-curvature="0" />
	<g
   id="g53">
		
			<line
   stroke-miterlimit="10"
   x1="289.29099"
   y1="176.729"
   x2="307.76199"
   y2="176.729"
   id="line55"
   style="fill:none;stroke:#000000;stroke-width:0.398;stroke-miterlimit:10" />
	</g>
	<path
   d="m 290.854,178.93 c 0,-0.18 0,-0.361 -0.199,-0.361 -0.2,0 -0.2,0.182 -0.2,0.361 v 9.279 c 0,0.18 0,0.359 0.2,0.359 0.199,0 0.199,-0.18 0.199,-0.359 v -9.279 z"
   id="path57"
   inkscape:connector-curvature="0" />
	<path
   d="m 293.655,178.93 c 0,-0.18 0,-0.361 -0.2,-0.361 -0.2,0 -0.2,0.182 -0.2,0.361 v 9.279 c 0,0.18 0,0.359 0.2,0.359 0.2,0 0.2,-0.18 0.2,-0.359 v -9.279 z"
   id="path59"
   inkscape:connector-curvature="0" />
	<path
   d="m 299.464,182.694 c 0.046,-0.219 0.142,-0.588 0.142,-0.648 0,-0.18 -0.133,-0.27 -0.273,-0.27 -0.114,0 -0.285,0.08 -0.352,0.279 -0.029,0.07 -0.475,1.977 -0.541,2.236 -0.066,0.301 -0.085,0.479 -0.085,0.658 0,0.111 0,0.131 0,0.18 -0.243,0.529 -0.556,0.84 -0.964,0.84 -0.835,0 -0.835,-0.738 -0.835,-0.908 0,-0.318 0.05,-0.707 0.526,-1.936 0.111,-0.299 0.173,-0.438 0.173,-0.637 0,-0.449 -0.327,-0.82 -0.81,-0.82 -0.938,0 -1.303,1.441 -1.303,1.531 0,0.1 0.098,0.1 0.119,0.1 0.098,0 0.107,-0.02 0.156,-0.182 0.267,-0.936 0.649,-1.248 0.991,-1.248 0.089,0 0.246,0.01 0.246,0.33 0,0.248 -0.104,0.529 -0.171,0.697 -0.416,1.178 -0.529,1.637 -0.529,2.016 0,0.908 0.668,1.256 1.414,1.256 0.17,0 0.639,0 1.036,-0.688 0.259,0.629 0.946,0.688 1.246,0.688 0.745,0 1.185,-0.625 1.445,-1.221 0.338,-0.775 0.658,-2.105 0.658,-2.584 0,-0.545 -0.258,-0.695 -0.421,-0.695 -0.24,0 -0.479,0.262 -0.479,0.48 0,0.131 0.055,0.189 0.134,0.27 0.098,0.109 0.322,0.369 0.322,0.848 0,0.34 -0.287,1.316 -0.543,1.826 -0.256,0.527 -0.6,0.877 -1.083,0.877 -0.463,0 -0.729,-0.301 -0.729,-0.869 0,-0.279 0.066,-0.588 0.105,-0.729 l 0.405,-1.677 z"
   id="path61"
   inkscape:connector-curvature="0" />
	<path
   d="m 303.854,178.93 c 0,-0.18 0,-0.361 -0.199,-0.361 -0.2,0 -0.2,0.182 -0.2,0.361 v 9.279 c 0,0.18 0,0.359 0.2,0.359 0.199,0 0.199,-0.18 0.199,-0.359 v -9.279 z"
   id="path63"
   inkscape:connector-curvature="0" />
	<path
   d="m 306.556,178.93 c 0,-0.18 0,-0.361 -0.201,-0.361 -0.199,0 -0.199,0.182 -0.199,0.361 v 9.279 c 0,0.18 0,0.359 0.199,0.359 0.201,0 0.201,-0.18 0.201,-0.359 v -9.279 z"
   id="path65"
   inkscape:connector-curvature="0" />
</g>
<line
   x1="61.949989"
   y1="152.91426"
   x2="185.26399"
   y2="29.59926"
   id="line67"
   style="fill:#ffffff;stroke:#000000;stroke-width:0.5;stroke-dasharray:2, 2" />
<line
   x1="30.622992"
   y1="168.54326"
   x2="155.62099"
   y2="43.546265"
   id="line69"
   style="fill:#ffffff;stroke:#314a97;stroke-width:1" />
<line
   x1="56.455986"
   y1="127.01427"
   x2="176.07597"
   y2="7.3922591"
   id="line71"
   style="fill:#ffffff;stroke:#000000;stroke-width:0.5;stroke-dasharray:2, 2" />
<circle
   cx="202.974"
   cy="290.41501"
   r="4"
   id="circle73"
   sodipodi:cx="202.974"
   sodipodi:cy="290.41501"
   sodipodi:rx="4"
   sodipodi:ry="4"
   style="fill:#ffffff;stroke:#000000;stroke-width:0.5"
   transform="translate(-115.12501,-163.40074)" />
<circle
   cx="207.80701"
   cy="302.112"
   r="4"
   id="circle75"
   sodipodi:cx="207.80701"
   sodipodi:cy="302.112"
   sodipodi:rx="4"
   sodipodi:ry="4"
   style="fill:#ffffff;stroke:#000000;stroke-width:0.5"
   transform="translate(-115.12501,-163.40074)" />
<circle
   cx="224.47301"
   cy="306.112"
   r="4"
   id="circle77"
   sodipodi:cx="224.47301"
   sodipodi:cy="306.112"
   sodipodi:rx="4"
   sodipodi:ry="4"
   style="fill:#ffffff;stroke:#000000;stroke-width:0.5"
   transform="translate(-115.12501,-163.40074)" />
<circle
   cx="250.306"
   cy="259.27802"
   r="4"
   id="circle79"
   sodipodi:cx="250.306"
   sodipodi:cy="259.27802"
   sodipodi:rx="4"
   sodipodi:ry="4"
   style="fill:#ffffff;stroke:#000000;stroke-width:0.5"
   transform="translate(-115.12501,-163.40074)" />
<circle
   cx="303.45599"
   cy="265.94501"
   r="4"
   id="circle81"
   sodipodi:cx="303.45599"
   sodipodi:cy="265.94501"
   sodipodi:rx="4"
   sodipodi:ry="4"
   style="fill:#ffffff;stroke:#000000;stroke-width:0.5"
   transform="translate(-115.12501,-163.40074)" />
<circle
   cx="238.675"
   cy="223.778"
   r="4"
   id="circle83"
   sodipodi:cx="238.675"
   sodipodi:cy="223.778"
   sodipodi:rx="4"
   sodipodi:ry="4"
   transform="translate(-115.12501,-163.40074)" />
<circle
   cx="168.658"
   cy="234.94501"
   r="4"
   id="circle85"
   sodipodi:cx="168.658"
   sodipodi:cy="234.94501"
   sodipodi:rx="4"
   sodipodi:ry="4"
   transform="translate(-115.12501,-163.40074)" />
<circle
   cx="128.875"
   cy="254.658"
   r="4"
   id="circle87"
   sodipodi:cx="128.875"
   sodipodi:cy="254.658"
   sodipodi:rx="4"
   sodipodi:ry="4"
   transform="translate(-115.12501,-163.40074)" />
<circle
   cx="166.591"
   cy="259.27899"
   r="4"
   id="circle89"
   sodipodi:cx="166.591"
   sodipodi:cy="259.27899"
   sodipodi:rx="4"
   sodipodi:ry="4"
   transform="translate(-115.12501,-163.40074)" />
<circle
   cx="187.278"
   cy="259.27899"
   r="4"
   id="circle91"
   sodipodi:cx="187.278"
   sodipodi:cy="259.27899"
   sodipodi:rx="4"
   sodipodi:ry="4"
   transform="translate(-115.12501,-163.40074)" />
<circle
   cx="198.974"
   cy="212.785"
   r="4"
   id="circle93"
   sodipodi:cx="198.974"
   sodipodi:cy="212.785"
   sodipodi:rx="4"
   sodipodi:ry="4"
   transform="translate(-115.12501,-163.40074)" />
<circle
   cx="244.412"
   cy="203.776"
   r="4"
   id="circle95"
   sodipodi:cx="244.412"
   sodipodi:cy="203.776"
   sodipodi:rx="4"
   sodipodi:ry="4"
   transform="translate(-115.12501,-163.40074)" />
<circle
   cx="223.021"
   cy="173.87"
   r="4"
   id="circle97"
   sodipodi:cx="223.021"
   sodipodi:cy="173.87"
   sodipodi:rx="4"
   sodipodi:ry="4"
   transform="translate(-115.12501,-163.40074)" />
<circle
   cx="265.306"
   cy="273.94501"
   r="4"
   id="circle99"
   sodipodi:cx="265.306"
   sodipodi:cy="273.94501"
   sodipodi:rx="4"
   sodipodi:ry="4"
   style="fill:#ffffff;stroke:#000000;stroke-width:0.5"
   transform="translate(-115.12501,-163.40074)" />
<circle
   cx="227.64"
   cy="265.944"
   r="4"
   id="circle101"
   sodipodi:cx="227.64"
   sodipodi:cy="265.944"
   sodipodi:rx="4"
   sodipodi:ry="4"
   style="fill:#ffffff;stroke:#000000;stroke-width:0.5"
   transform="translate(-115.12501,-163.40074)" />
<line
   x1="185.26399"
   y1="40.795258"
   x2="158.27199"
   y2="13.803255"
   id="line103"
   style="fill:#ffffff;stroke:#000000;stroke-width:0.25" />
<path
   d="m 158.28699,10.23926 5.13,8.708 -4.634,-4.634 c 0.596,-0.595 0.495,-2.422 -0.496,-4.074 z"
   id="path105"
   inkscape:connector-curvature="0" />
<path
   d="m 154.70799,13.81826 8.709,5.129 -4.634,-4.634 c -0.597,0.598 -2.422,0.496 -4.075,-0.495 z"
   id="path107"
   inkscape:connector-curvature="0" />
<line
   x1="116.26699"
   y1="52.593262"
   x2="93.273994"
   y2="29.601259"
   id="line109"
   style="fill:#ffffff;stroke:#000000;stroke-width:0.25" />
<path
   d="m 114.29299,47.04026 5.129,8.708 -4.633,-4.634 c 0.596,-0.595 0.494,-2.421 -0.496,-4.074 z"
   id="path111"
   inkscape:connector-curvature="0" />
<path
   d="m 110.71299,50.62026 8.709,5.129 -4.633,-4.634 c -0.598,0.597 -2.422,0.496 -4.076,-0.495 z"
   id="path113"
   inkscape:connector-curvature="0" />
<line
   x1="44.367989"
   y1="160.04427"
   x2="219.77699"
   y2="160.04427"
   id="line115"
   style="fill:#ffffff;stroke:#000000;stroke-width:0.5" />
<line
   x1="0.01498992"
   y1="160.04427"
   x2="20.280996"
   y2="160.04427"
   id="line117"
   style="fill:#ffffff;stroke:#000000;stroke-width:0.5" />
<line
   x1="119.29699"
   y1="109.05424"
   x2="129.23898"
   y2="118.99626"
   id="line119"
   style="fill:#ffffff;stroke:#000000;stroke-width:0.25" />
<path
   d="m 121.27099,114.60626 -5.129,-8.708 4.633,4.634 c -0.596,0.596 -0.495,2.422 0.496,4.074 z"
   id="path121"
   inkscape:connector-curvature="0" />
<path
   d="m 124.85099,111.02726 -8.709,-5.129 4.633,4.634 c 0.597,-0.598 2.421,-0.496 4.076,0.495 z"
   id="path123"
   inkscape:connector-curvature="0" />
<line
   x1="98.083992"
   y1="127.56425"
   x2="112.14599"
   y2="127.56325"
   id="line125"
   style="fill:#ffffff;stroke:#000000;stroke-width:0.25" />
<path
   d="m 103.40699,130.09426 -9.782999,-2.53 6.551999,0 c -0.001,0.843 1.363,2.062 3.231,2.53 z"
   id="path127"
   inkscape:connector-curvature="0" />
<path
   d="m 103.40799,125.03226 -9.783999,2.532 6.551999,0 c -0.001,-0.845 1.362,-2.063 3.232,-2.532 z"
   id="path129"
   inkscape:connector-curvature="0" />
<g
   id="g131"
   transform="translate(-115.12501,-163.40074)">
	<path
   d="m 178.352,187.355 c 0.049,-0.22 0.145,-0.589 0.145,-0.649 0,-0.18 -0.133,-0.27 -0.275,-0.27 -0.113,0 -0.283,0.08 -0.351,0.28 -0.028,0.07 -0.474,1.977 -0.541,2.236 -0.065,0.3 -0.086,0.479 -0.086,0.659 0,0.11 0,0.13 0,0.18 -0.241,0.529 -0.555,0.839 -0.962,0.839 -0.837,0 -0.837,-0.738 -0.837,-0.908 0,-0.319 0.051,-0.708 0.526,-1.935 0.112,-0.299 0.174,-0.439 0.174,-0.638 0,-0.449 -0.326,-0.819 -0.809,-0.819 -0.938,0 -1.303,1.441 -1.303,1.53 0,0.1 0.098,0.1 0.118,0.1 0.098,0 0.108,-0.02 0.157,-0.181 0.265,-0.937 0.647,-1.249 0.99,-1.249 0.088,0 0.246,0.011 0.246,0.33 0,0.249 -0.104,0.529 -0.17,0.698 -0.416,1.177 -0.529,1.636 -0.529,2.015 0,0.908 0.666,1.257 1.414,1.257 0.17,0 0.638,0 1.035,-0.688 0.26,0.629 0.946,0.688 1.245,0.688 0.747,0 1.187,-0.626 1.445,-1.222 0.339,-0.775 0.659,-2.106 0.659,-2.583 0,-0.546 -0.26,-0.695 -0.422,-0.695 -0.238,0 -0.479,0.26 -0.479,0.48 0,0.13 0.055,0.189 0.135,0.269 0.098,0.11 0.321,0.369 0.321,0.848 0,0.339 -0.286,1.316 -0.542,1.825 -0.256,0.529 -0.602,0.878 -1.084,0.878 -0.463,0 -0.729,-0.3 -0.729,-0.869 0,-0.28 0.066,-0.589 0.104,-0.729 l 0.405,-1.677 z"
   id="path133"
   inkscape:connector-curvature="0" />
	
		<line
   stroke-miterlimit="10"
   x1="173.729"
   y1="192.106"
   x2="181.129"
   y2="192.106"
   id="line135"
   style="fill:none;stroke:#000000;stroke-width:0.398;stroke-miterlimit:10" />
	<path
   d="m 182.877,183.831 h 0.698 c 0.13,0 0.22,0 0.22,-0.122 0,-0.078 -0.092,-0.078 -0.209,-0.078 h -0.664 l 0.258,-1.068 c 0.008,-0.036 0.021,-0.072 0.021,-0.101 0,-0.13 -0.098,-0.231 -0.236,-0.231 -0.176,0 -0.279,0.123 -0.328,0.311 -0.049,0.18 0.041,-0.166 -0.266,1.089 h -0.711 c -0.132,0 -0.223,0 -0.223,0.122 0,0.078 0.084,0.078 0.209,0.078 h 0.662 l -0.369,1.69 c -0.038,0.179 -0.094,0.437 -0.094,0.53 0,0.423 0.338,0.68 0.727,0.68 0.754,0 1.182,-1.002 1.182,-1.095 0,-0.093 -0.089,-0.093 -0.109,-0.093 -0.081,0 -0.088,0.014 -0.143,0.136 -0.191,0.451 -0.541,0.852 -0.916,0.852 -0.144,0 -0.24,-0.093 -0.24,-0.351 0,-0.071 0.027,-0.222 0.041,-0.293 l 0.49,-2.056 z"
   id="path137"
   inkscape:connector-curvature="0" />
	<path
   d="m 187.971,187.714 c 0.061,-0.261 0.289,-1.183 0.986,-1.183 0.051,0 0.289,0 0.498,0.099 -0.299,0.051 -0.512,0.304 -0.512,0.546 0,0.162 0.107,0.354 0.372,0.354 0.215,0 0.528,-0.174 0.528,-0.561 0,-0.503 -0.57,-0.639 -0.899,-0.639 -0.575,0 -0.921,0.525 -1.04,0.753 -0.248,-0.654 -0.782,-0.753 -1.068,-0.753 -1.029,0 -1.594,1.282 -1.594,1.53 0,0.1 0.1,0.1 0.12,0.1 0.08,0 0.11,-0.02 0.13,-0.111 0.339,-1.067 0.996,-1.319 1.335,-1.319 0.188,0 0.538,0.091 0.538,0.672 0,0.311 -0.17,0.982 -0.538,2.386 -0.159,0.621 -0.508,1.043 -0.946,1.043 -0.06,0 -0.289,0 -0.498,-0.1 0.246,-0.05 0.463,-0.263 0.463,-0.546 0,-0.273 -0.215,-0.354 -0.361,-0.354 -0.294,0 -0.538,0.252 -0.538,0.561 0,0.445 0.497,0.639 0.935,0.639 0.655,0 1.014,-0.689 1.043,-0.748 0.119,0.364 0.477,0.748 1.072,0.748 1.023,0 1.592,-1.278 1.592,-1.525 0,-0.099 -0.09,-0.099 -0.121,-0.099 -0.088,0 -0.108,0.04 -0.129,0.111 -0.328,1.073 -1.006,1.314 -1.324,1.314 -0.389,0 -0.549,-0.321 -0.549,-0.662 0,-0.22 0.061,-0.441 0.17,-0.882 l 0.335,-1.374 z"
   id="path139"
   inkscape:connector-curvature="0" />
	
		<line
   stroke-miterlimit="10"
   x1="184.63699"
   y1="192.106"
   x2="190.33"
   y2="192.106"
   id="line141"
   style="fill:none;stroke:#000000;stroke-width:0.398;stroke-miterlimit:10" />
	<path
   d="m 196.645,188.431 h 2.756 c 0.137,0 0.326,0 0.326,-0.2 0,-0.2 -0.189,-0.2 -0.326,-0.2 h -2.756 v -2.773 c 0,-0.139 0,-0.327 -0.201,-0.327 -0.199,0 -0.199,0.189 -0.199,0.327 v 2.773 h -2.811 c -0.142,0 -0.332,0 -0.332,0.2 0,0.2 0.191,0.2 0.332,0.2 h 2.811 v 2.773 c 0,0.139 0,0.327 0.199,0.327 0.201,0 0.201,-0.188 0.201,-0.327 v -2.773 z"
   id="path143"
   inkscape:connector-curvature="0" />
	<path
   d="m 204.922,183.939 c 0,-0.01 0,-0.109 -0.127,-0.109 -0.225,0 -0.939,0.076 -1.193,0.095 -0.078,0.009 -0.186,0.019 -0.186,0.19 0,0.114 0.088,0.114 0.234,0.114 0.471,0 0.49,0.071 0.49,0.17 0,0.07 -0.088,0.408 -0.139,0.617 l -0.801,3.245 c -0.119,0.498 -0.158,0.657 -0.158,1.005 0,0.946 0.52,1.563 1.242,1.563 1.154,0 2.359,-1.48 2.359,-2.911 0,-0.904 -0.52,-1.589 -1.303,-1.589 -0.449,0 -0.852,0.287 -1.145,0.594 l 0.727,-2.984 z m -0.908,3.746 c 0.059,-0.221 0.059,-0.241 0.146,-0.351 0.477,-0.651 0.916,-0.802 1.168,-0.802 0.352,0 0.615,0.301 0.615,0.943 0,0.591 -0.322,1.744 -0.498,2.125 -0.32,0.671 -0.77,1.032 -1.15,1.032 -0.33,0 -0.652,-0.271 -0.652,-1.013 0,-0.191 0,-0.381 0.156,-1.013 l 0.215,-0.921 z"
   id="path145"
   inkscape:connector-curvature="0" />
	<path
   d="m 216.406,187.431 c 0.148,0 0.338,0 0.338,-0.2 0,-0.2 -0.189,-0.2 -0.328,-0.2 h -5.945 c -0.141,0 -0.328,0 -0.328,0.2 0,0.2 0.188,0.2 0.338,0.2 h 5.925 z m 0.01,2 c 0.139,0 0.328,0 0.328,-0.2 0,-0.2 -0.189,-0.2 -0.338,-0.2 h -5.926 c -0.15,0 -0.338,0 -0.338,0.2 0,0.2 0.189,0.2 0.328,0.2 h 5.946 z"
   id="path147"
   inkscape:connector-curvature="0" />
	<path
   d="m 222.943,184.389 c 0,-0.238 0,-0.258 -0.225,-0.258 -0.609,0.6 -1.475,0.6 -1.787,0.6 v 0.3 c 0.199,0 0.791,0 1.312,-0.248 v 5.169 c 0,0.359 -0.031,0.479 -0.934,0.479 h -0.32 v 0.3 h 3.229 v -0.3 h -0.326 c -0.918,0 -0.949,-0.109 -0.949,-0.476 v -5.566 z"
   id="path149"
   inkscape:connector-curvature="0" />
	<path
   d="m 236.054,288.741 c 0.047,-0.22 0.144,-0.589 0.144,-0.649 0,-0.18 -0.133,-0.27 -0.274,-0.27 -0.115,0 -0.285,0.08 -0.352,0.28 -0.029,0.07 -0.475,1.977 -0.541,2.236 -0.066,0.301 -0.086,0.479 -0.086,0.659 0,0.11 0,0.13 0,0.18 -0.241,0.529 -0.555,0.84 -0.962,0.84 -0.837,0 -0.837,-0.738 -0.837,-0.908 0,-0.319 0.051,-0.708 0.527,-1.935 0.111,-0.3 0.172,-0.439 0.172,-0.639 0,-0.449 -0.326,-0.819 -0.809,-0.819 -0.938,0 -1.302,1.441 -1.302,1.53 0,0.1 0.098,0.1 0.118,0.1 0.098,0 0.107,-0.02 0.156,-0.181 0.266,-0.937 0.648,-1.249 0.991,-1.249 0.089,0 0.246,0.011 0.246,0.33 0,0.249 -0.104,0.529 -0.17,0.698 -0.416,1.177 -0.53,1.636 -0.53,2.015 0,0.908 0.668,1.257 1.414,1.257 0.17,0 0.639,0 1.036,-0.688 0.259,0.629 0.946,0.688 1.245,0.688 0.747,0 1.186,-0.626 1.445,-1.222 0.339,-0.775 0.658,-2.106 0.658,-2.583 0,-0.546 -0.259,-0.695 -0.42,-0.695 -0.24,0 -0.479,0.26 -0.479,0.48 0,0.13 0.054,0.189 0.134,0.269 0.098,0.11 0.322,0.369 0.322,0.848 0,0.339 -0.286,1.315 -0.542,1.825 -0.257,0.528 -0.601,0.878 -1.084,0.878 -0.464,0 -0.729,-0.301 -0.729,-0.869 0,-0.28 0.067,-0.589 0.105,-0.729 l 0.404,-1.677 z"
   id="path151"
   inkscape:connector-curvature="0" />
	<g
   id="g153">
		
			<line
   stroke-miterlimit="10"
   x1="231.481"
   y1="293.466"
   x2="238.882"
   y2="293.466"
   id="line155"
   style="fill:none;stroke:#000000;stroke-width:0.398;stroke-miterlimit:10" />
	</g>
	<path
   d="m 240.579,285.116 h 0.698 c 0.13,0 0.219,0 0.219,-0.122 0,-0.078 -0.091,-0.078 -0.209,-0.078 h -0.663 l 0.259,-1.068 c 0.006,-0.036 0.021,-0.072 0.021,-0.101 0,-0.13 -0.099,-0.231 -0.237,-0.231 -0.175,0 -0.279,0.123 -0.328,0.311 -0.049,0.18 0.043,-0.166 -0.265,1.089 h -0.711 c -0.132,0 -0.224,0 -0.224,0.122 0,0.078 0.084,0.078 0.209,0.078 h 0.664 l -0.371,1.69 c -0.037,0.179 -0.094,0.437 -0.094,0.53 0,0.423 0.34,0.68 0.728,0.68 0.754,0 1.182,-1.002 1.182,-1.095 0,-0.093 -0.089,-0.093 -0.108,-0.093 -0.082,0 -0.09,0.014 -0.145,0.136 -0.191,0.451 -0.54,0.852 -0.916,0.852 -0.143,0 -0.238,-0.093 -0.238,-0.351 0,-0.071 0.026,-0.222 0.041,-0.293 l 0.488,-2.056 z"
   id="path157"
   inkscape:connector-curvature="0" />
	<path
   d="m 245.673,289.099 c 0.06,-0.26 0.289,-1.183 0.985,-1.183 0.05,0 0.289,0 0.498,0.099 -0.299,0.051 -0.513,0.304 -0.513,0.546 0,0.162 0.109,0.354 0.373,0.354 0.215,0 0.529,-0.174 0.529,-0.561 0,-0.503 -0.572,-0.639 -0.9,-0.639 -0.575,0 -0.922,0.525 -1.04,0.753 -0.248,-0.654 -0.782,-0.753 -1.069,-0.753 -1.029,0 -1.593,1.282 -1.593,1.53 0,0.1 0.1,0.1 0.12,0.1 0.08,0 0.109,-0.02 0.13,-0.11 0.339,-1.067 0.996,-1.319 1.335,-1.319 0.189,0 0.538,0.091 0.538,0.672 0,0.311 -0.17,0.982 -0.538,2.386 -0.159,0.621 -0.508,1.043 -0.946,1.043 -0.06,0 -0.289,0 -0.498,-0.101 0.246,-0.05 0.464,-0.263 0.464,-0.546 0,-0.272 -0.217,-0.354 -0.363,-0.354 -0.293,0 -0.537,0.252 -0.537,0.561 0,0.445 0.496,0.639 0.934,0.639 0.656,0 1.014,-0.688 1.043,-0.748 0.12,0.364 0.477,0.748 1.073,0.748 1.022,0 1.591,-1.277 1.591,-1.524 0,-0.1 -0.089,-0.1 -0.119,-0.1 -0.09,0 -0.109,0.04 -0.13,0.111 -0.329,1.073 -1.006,1.314 -1.325,1.314 -0.388,0 -0.548,-0.321 -0.548,-0.662 0,-0.22 0.06,-0.441 0.169,-0.882 l 0.337,-1.374 z"
   id="path159"
   inkscape:connector-curvature="0" />
	
		<line
   stroke-miterlimit="10"
   x1="242.388"
   y1="293.466"
   x2="248.08299"
   y2="293.466"
   id="line161"
   style="fill:none;stroke:#000000;stroke-width:0.398;stroke-miterlimit:10" />
	<path
   d="m 254.446,289.816 h 2.756 c 0.138,0 0.327,0 0.327,-0.2 0,-0.2 -0.189,-0.2 -0.327,-0.2 h -2.756 v -2.773 c 0,-0.139 0,-0.327 -0.2,-0.327 -0.199,0 -0.199,0.189 -0.199,0.327 v 2.773 h -2.812 c -0.142,0 -0.331,0 -0.331,0.2 0,0.2 0.191,0.2 0.331,0.2 h 2.812 v 2.772 c 0,0.14 0,0.327 0.199,0.327 0.2,0 0.2,-0.188 0.2,-0.327 v -2.772 z"
   id="path163"
   inkscape:connector-curvature="0" />
	<path
   d="m 262.623,285.325 c 0,-0.01 0,-0.109 -0.127,-0.109 -0.225,0 -0.938,0.076 -1.191,0.095 -0.078,0.009 -0.187,0.019 -0.187,0.19 0,0.114 0.088,0.114 0.235,0.114 0.469,0 0.488,0.071 0.488,0.17 0,0.07 -0.088,0.408 -0.137,0.617 l -0.802,3.245 c -0.118,0.498 -0.157,0.657 -0.157,1.005 0,0.946 0.519,1.562 1.242,1.562 1.154,0 2.357,-1.479 2.357,-2.91 0,-0.904 -0.52,-1.589 -1.303,-1.589 -0.449,0 -0.85,0.287 -1.145,0.594 l 0.727,-2.984 z m -0.909,3.745 c 0.061,-0.221 0.061,-0.241 0.146,-0.351 0.477,-0.651 0.916,-0.802 1.17,-0.802 0.35,0 0.613,0.301 0.613,0.943 0,0.591 -0.32,1.744 -0.496,2.125 -0.322,0.671 -0.771,1.032 -1.15,1.032 -0.332,0 -0.652,-0.271 -0.652,-1.014 0,-0.19 0,-0.381 0.155,-1.013 l 0.214,-0.92 z"
   id="path165"
   inkscape:connector-curvature="0" />
	<path
   d="m 274.207,288.816 c 0.15,0 0.338,0 0.338,-0.2 0,-0.2 -0.188,-0.2 -0.328,-0.2 h -5.945 c -0.139,0 -0.328,0 -0.328,0.2 0,0.2 0.189,0.2 0.338,0.2 h 5.925 z m 0.009,2 c 0.141,0 0.328,0 0.328,-0.2 0,-0.2 -0.188,-0.2 -0.338,-0.2 h -5.926 c -0.148,0 -0.336,0 -0.336,0.2 0,0.2 0.188,0.2 0.328,0.2 h 5.944 z"
   id="path167"
   inkscape:connector-curvature="0" />
	<path
   d="m 284.396,289.816 c 0.17,0 0.35,0 0.35,-0.2 0,-0.2 -0.18,-0.2 -0.35,-0.2 h -5.402 c -0.17,0 -0.35,0 -0.35,0.2 0,0.2 0.18,0.2 0.35,0.2 h 5.402 z"
   id="path169"
   inkscape:connector-curvature="0" />
	<path
   d="m 288.445,285.774 c 0,-0.238 0,-0.258 -0.225,-0.258 -0.609,0.6 -1.475,0.6 -1.787,0.6 v 0.3 c 0.199,0 0.791,0 1.312,-0.248 v 5.168 c 0,0.359 -0.031,0.479 -0.934,0.479 h -0.32 v 0.3 h 3.229 v -0.3 h -0.326 c -0.918,0 -0.949,-0.109 -0.949,-0.477 v -5.564 z"
   id="path171"
   inkscape:connector-curvature="0" />
	<path
   d="m 317.367,224.458 c 0.047,-0.22 0.144,-0.589 0.144,-0.649 0,-0.18 -0.133,-0.27 -0.274,-0.27 -0.115,0 -0.285,0.08 -0.352,0.28 -0.029,0.069 -0.475,1.977 -0.541,2.235 -0.066,0.301 -0.086,0.479 -0.086,0.659 0,0.11 0,0.13 0,0.18 -0.241,0.529 -0.555,0.84 -0.962,0.84 -0.837,0 -0.837,-0.738 -0.837,-0.908 0,-0.319 0.051,-0.708 0.527,-1.936 0.111,-0.299 0.172,-0.438 0.172,-0.638 0,-0.449 -0.326,-0.819 -0.809,-0.819 -0.938,0 -1.302,1.441 -1.302,1.53 0,0.101 0.098,0.101 0.118,0.101 0.098,0 0.107,-0.021 0.156,-0.182 0.266,-0.937 0.648,-1.249 0.991,-1.249 0.089,0 0.246,0.011 0.246,0.33 0,0.249 -0.104,0.529 -0.17,0.698 -0.416,1.177 -0.53,1.636 -0.53,2.015 0,0.908 0.668,1.257 1.414,1.257 0.17,0 0.639,0 1.036,-0.688 0.259,0.629 0.946,0.688 1.245,0.688 0.747,0 1.186,-0.626 1.445,-1.222 0.339,-0.775 0.658,-2.105 0.658,-2.583 0,-0.546 -0.258,-0.695 -0.42,-0.695 -0.24,0 -0.479,0.261 -0.479,0.48 0,0.13 0.054,0.188 0.134,0.269 0.098,0.11 0.322,0.369 0.322,0.849 0,0.339 -0.286,1.315 -0.542,1.825 -0.257,0.528 -0.601,0.878 -1.084,0.878 -0.464,0 -0.729,-0.301 -0.729,-0.869 0,-0.28 0.067,-0.589 0.105,-0.729 l 0.404,-1.677 z"
   id="path173"
   inkscape:connector-curvature="0" />
	<g
   id="g175">
		
			<line
   stroke-miterlimit="10"
   x1="312.806"
   y1="229.211"
   x2="320.207"
   y2="229.211"
   id="line177"
   style="fill:none;stroke:#000000;stroke-width:0.398;stroke-miterlimit:10" />
	</g>
	<path
   d="m 324.658,225.333 c 0.062,-1.541 0.912,-1.8 1.256,-1.8 1.043,0 1.144,1.396 1.144,1.8 h -2.4 z m 0,0.2 h 2.846 c 0.224,0 0.255,0 0.255,-0.2 0,-1.01 -0.545,-2 -1.804,-2 -1.17,0 -2.096,1.033 -2.096,2.286 0,1.343 1.057,2.314 2.215,2.314 1.229,0 1.685,-1.098 1.685,-1.285 0,-0.1 -0.062,-0.119 -0.101,-0.119 -0.069,0 -0.084,0.062 -0.1,0.145 -0.365,1.062 -1.304,1.062 -1.408,1.062 -0.521,0 -0.938,-0.305 -1.179,-0.68 -0.313,-0.486 -0.313,-1.155 -0.313,-1.521 v -0.002 z"
   id="path179"
   inkscape:connector-curvature="0" />
	<path
   d="m 329.658,223.833 h 1.449 v -0.3 h -1.449 v -1.8 h -0.246 c -0.01,0.801 -0.303,1.846 -1.265,1.886 v 0.215 h 0.81 v 2.754 c 0,1.228 0.938,1.348 1.303,1.348 0.716,0 0.999,-0.703 0.999,-1.337 v -0.563 h -0.2 v 0.56 c 0,0.754 -0.312,1.142 -0.699,1.142 -0.701,0 -0.701,-0.92 -0.701,-1.091 v -2.814 z"
   id="path181"
   inkscape:connector-curvature="0" />
	<path
   d="m 338.484,224.817 c 0.061,-0.262 0.289,-1.184 0.986,-1.184 0.051,0 0.289,0 0.498,0.1 -0.299,0.051 -0.512,0.304 -0.512,0.546 0,0.162 0.107,0.354 0.373,0.354 0.215,0 0.527,-0.174 0.527,-0.561 0,-0.503 -0.57,-0.64 -0.898,-0.64 -0.576,0 -0.922,0.525 -1.041,0.753 -0.248,-0.653 -0.781,-0.753 -1.068,-0.753 -1.029,0 -1.593,1.282 -1.593,1.53 0,0.101 0.1,0.101 0.12,0.101 0.08,0 0.109,-0.021 0.129,-0.111 0.34,-1.067 0.996,-1.319 1.336,-1.319 0.188,0 0.537,0.091 0.537,0.672 0,0.312 -0.17,0.982 -0.537,2.387 -0.16,0.621 -0.508,1.043 -0.947,1.043 -0.059,0 -0.289,0 -0.497,-0.101 0.245,-0.05 0.462,-0.263 0.462,-0.546 0,-0.272 -0.215,-0.354 -0.361,-0.354 -0.293,0 -0.537,0.252 -0.537,0.561 0,0.445 0.496,0.639 0.934,0.639 0.656,0 1.014,-0.688 1.043,-0.748 0.119,0.364 0.477,0.748 1.072,0.748 1.023,0 1.592,-1.277 1.592,-1.524 0,-0.099 -0.09,-0.099 -0.121,-0.099 -0.088,0 -0.107,0.039 -0.129,0.11 -0.328,1.073 -1.006,1.314 -1.324,1.314 -0.389,0 -0.549,-0.321 -0.549,-0.662 0,-0.22 0.061,-0.441 0.17,-0.882 l 0.335,-1.374 z"
   id="path183"
   inkscape:connector-curvature="0" />
	<g
   id="g185">
		
			<line
   stroke-miterlimit="10"
   x1="335.14999"
   y1="229.211"
   x2="340.84399"
   y2="229.211"
   id="line187"
   style="fill:none;stroke:#000000;stroke-width:0.398;stroke-miterlimit:10" />
	</g>
	<path
   d="m 349.113,225.533 c 0.172,0 0.354,0 0.354,-0.2 0,-0.2 -0.182,-0.2 -0.354,-0.2 h -4.256 c 0.121,-1.34 1.275,-2.3 2.691,-2.3 h 1.566 c 0.17,0 0.352,0 0.352,-0.2 0,-0.2 -0.18,-0.2 -0.352,-0.2 h -1.582 c -1.713,0 -3.074,1.301 -3.074,2.9 0,1.599 1.361,2.9 3.074,2.9 h 1.582 c 0.17,0 0.352,0 0.352,-0.2 0,-0.2 -0.182,-0.2 -0.352,-0.2 h -1.566 c -1.416,0 -2.57,-0.96 -2.691,-2.3 h 4.256 z"
   id="path189"
   inkscape:connector-curvature="0" />
	<path
   d="m 355.658,224.632 h 0.363 l 1.52,2.364 c 0.102,0.163 0.344,0.561 0.455,0.713 0.07,0.122 0.1,0.122 0.334,0.122 h 1.396 c 0.182,0 0.334,0 0.334,-0.154 0,-0.067 -0.059,-0.129 -0.148,-0.146 -0.369,-0.08 -0.857,-0.74 -1.098,-1.061 -0.068,-0.1 -0.566,-0.76 -1.234,-1.84 0.854,-0.16 1.678,-0.54 1.678,-1.729 0,-1.391 -1.449,-1.87 -2.611,-1.87 h -3.094 c -0.178,0 -0.336,0 -0.336,0.153 0,0.146 0.201,0.146 0.285,0.146 0.602,0 0.656,0.072 0.656,0.576 v 5.05 c 0,0.504 -0.055,0.575 -0.656,0.575 -0.084,0 -0.285,0 -0.285,0.146 0,0.154 0.16,0.154 0.34,0.154 h 2.73 c 0.178,0 0.328,0 0.328,-0.154 0,-0.146 -0.184,-0.146 -0.301,-0.146 -0.611,0 -0.654,-0.083 -0.654,-0.593 l -0.002,-2.306 z m 1.992,-0.416 c 0.277,-0.369 0.309,-0.896 0.309,-1.335 0,-0.478 -0.061,-1.006 -0.377,-1.414 0.402,0.089 1.377,0.398 1.377,1.405 0,0.649 -0.295,1.156 -1.309,1.344 l 0,0 z m -1.992,-2.344 c 0,-0.209 0,-0.539 0.656,-0.539 0.898,0 1.344,0.349 1.344,1.525 0,1.284 -0.328,1.475 -2,1.475 v -2.461 z m -1.285,5.661 c 0.084,-0.183 0.084,-0.464 0.084,-0.554 v -5.091 c 0,-0.101 0,-0.373 -0.084,-0.555 h 1.137 c -0.152,0.162 -0.152,0.364 -0.152,0.515 v 5.131 c 0,0.101 0,0.372 0.102,0.554 h -1.087 z m 2.123,-2.901 c 0.068,0.002 0.109,0.004 0.188,0.004 0.15,0 0.369,0.004 0.52,0.009 0.148,0.242 1.225,2.047 2.051,2.888 h -0.965 l -1.794,-2.901 z"
   id="path191"
   inkscape:connector-curvature="0" />
	<path
   d="m 364.24,219.045 c 0.008,-0.014 0.027,-0.105 0.027,-0.114 0,-0.034 -0.027,-0.1 -0.111,-0.1 -0.141,0 -0.723,0.051 -0.898,0.064 -0.057,0.006 -0.156,0.012 -0.156,0.146 0,0.089 0.1,0.089 0.184,0.089 0.338,0 0.338,0.052 0.338,0.11 0,0.051 -0.016,0.095 -0.029,0.161 l -0.4,1.665 c -0.146,-0.244 -0.385,-0.437 -0.723,-0.437 -0.898,0 -1.811,1.001 -1.811,2.022 0,0.688 0.455,1.178 1.059,1.178 0.379,0 0.717,-0.23 0.998,-0.518 0.133,0.443 0.541,0.518 0.723,0.518 0.254,0 0.43,-0.157 0.557,-0.379 0.152,-0.279 0.246,-0.688 0.246,-0.716 0,-0.094 -0.092,-0.094 -0.113,-0.094 -0.098,0 -0.105,0.029 -0.154,0.223 -0.084,0.344 -0.217,0.766 -0.512,0.766 -0.184,0 -0.232,-0.156 -0.232,-0.348 0,-0.135 0.014,-0.199 0.035,-0.291 l 0.972,-3.945 z m -1.484,3.829 c -0.047,0.198 -0.201,0.34 -0.354,0.475 -0.062,0.058 -0.34,0.284 -0.639,0.284 -0.256,0 -0.506,-0.184 -0.506,-0.688 0,-0.376 0.201,-1.155 0.361,-1.439 0.318,-0.566 0.674,-0.674 0.867,-0.674 0.486,0 0.617,0.539 0.617,0.617 0,0.029 -0.014,0.078 -0.02,0.099 l -0.326,1.326 z"
   id="path193"
   inkscape:connector-curvature="0" />
</g>
</svg>