<?xml version="1.0" encoding="UTF-8" standalone="no"?>
<!-- Generator: Adobe Illustrator 14.0.0, SVG Export Plug-In . SVG Version: 6.00 Build 43363)  -->

<svg
   xmlns:dc="http://purl.org/dc/elements/1.1/"
   xmlns:cc="http://creativecommons.org/ns#"
   xmlns:rdf="http://www.w3.org/1999/02/22-rdf-syntax-ns#"
   xmlns:svg="http://www.w3.org/2000/svg"
   xmlns="http://www.w3.org/2000/svg"
   xmlns:sodipodi="http://sodipodi.sourceforge.net/DTD/sodipodi-0.dtd"
   xmlns:inkscape="http://www.inkscape.org/namespaces/inkscape"
   version="1.1"
   id="Calque_1"
   x="0px"
   y="0px"
   width="280"
   height="222.4682"
   viewBox="0 0 279.99999 222.46819"
   enable-background="new 0 0 595.28 841.89"
   xml:space="preserve"
   inkscape:version="0.48.3.1 r9886"
   sodipodi:docname="separateur_jo.svg"><metadata
   id="metadata199"><rdf:RDF><cc:Work
       rdf:about=""><dc:format>image/svg+xml</dc:format><dc:type
         rdf:resource="http://purl.org/dc/dcmitype/StillImage" /><dc:title></dc:title></cc:Work></rdf:RDF></metadata><defs
   id="defs197" /><sodipodi:namedview
   pagecolor="#ffffff"
   bordercolor="#666666"
   borderopacity="1"
   objecttolerance="10"
   gridtolerance="10"
   guidetolerance="10"
   inkscape:pageopacity="0"
   inkscape:pageshadow="2"
   inkscape:window-width="1200"
   inkscape:window-height="1869"
   id="namedview195"
   showgrid="false"
   inkscape:zoom="4.4851464"
   inkscape:cx="145.38473"
   inkscape:cy="213.9989"
   inkscape:window-x="-2"
   inkscape:window-y="28"
   inkscape:window-maximized="1"
   inkscape:current-layer="Calque_1"
   showguides="true"
   inkscape:guide-bbox="true"
   fit-margin-top="0"
   fit-margin-left="0"
   fit-margin-right="0"
   fit-margin-bottom="0" />
<path
   d="M 84.021765,181.03379 184.20995,80.844437 c 0,0 38.16196,4.527945 47.64151,35.823113 16.09678,53.14097 -31.97187,105.96855 -85.94507,105.80024 -53.973198,-0.1683 -46.582932,-22.34606 -61.884625,-41.434 z"
   id="path3"
   inkscape:connector-curvature="0"
   style="fill:#cccccb" />
<path
   d="M 165.99022,62.624722 65.802038,162.81407 c 0,0 -65.51069779,19.38509 -65.51069779,-36.13999 0,-41.206508 55.64462879,-111.455242 109.61782979,-111.286939 53.97319,0.168304 40.7782,28.148475 56.08105,47.237581 z"
   id="path5"
   inkscape:connector-curvature="0"
   style="fill:#808080" />
<line
   x1="22.343744"
   y1="216.24174"
   x2="22.343744"
   y2="39.809731"
   id="line7"
   style="fill:#ffffff;stroke:#000000;stroke-width:0.58035702" />
<path
   d="m 250.93359,198.21468 11.35759,2.93776 h -7.60616 c 0.001,-0.97964 -1.58089,-2.39455 -3.75143,-2.93776 z"
   id="path9"
   inkscape:connector-curvature="0" />
<path
   d="m 250.93359,204.09021 11.35759,-2.93777 h -7.60616 c 0.001,0.97965 -1.58089,2.3934 -3.75143,2.93777 z"
   id="path11"
   inkscape:connector-curvature="0" />
<path
   d="m 216.12842,67.707488 -5.95446,-10.107501 5.37875,5.378752 c -0.69295,0.691786 -0.57455,2.81125 0.57571,4.728749 z"
   id="path13"
   inkscape:connector-curvature="0" />
<path
   d="m 220.28262,63.553293 -10.10866,-5.953306 5.37875,5.378752 c 0.69063,-0.694107 2.81009,-0.575714 4.72991,0.574554 z"
   id="path15"
   inkscape:connector-curvature="0" />
<path
   d="m 19.405978,43.561152 2.937767,-11.357586 v 7.606158 c -0.979642,0 -2.393392,1.580893 -2.937767,3.751428 z"
   id="path17"
   inkscape:connector-curvature="0" />
<path
   d="M 25.281512,43.561152 22.343745,32.203566 v 7.606158 c 0.979643,0 2.394553,1.580893 2.937767,3.751428 z"
   id="path19"
   inkscape:connector-curvature="0" />

<line
   x1="72.179001"
   y1="192.87657"
   x2="215.31129"
   y2="49.743118"
   id="line67"
   style="fill:#ffffff;stroke:#000000;stroke-width:0.58035702;stroke-dasharray:2.32142797, 2.32142797" />
<line
   x1="36.989777"
   y1="212.18591"
   x2="198.0083"
   y2="51.168697"
   id="line69"
   style="fill:#ffffff;stroke:#314a97;stroke-width:1.28816879" />
<line
   x1="54.677513"
   y1="173.9388"
   x2="204.62343"
   y2="23.990326"
   id="line71"
   style="fill:#ffffff;stroke:#000000;stroke-width:0.62675947;stroke-dasharray:2.50703768, 2.50703768" />
<circle
   cx="202.974"
   cy="290.41501"
   r="4"
   id="circle73"
   sodipodi:cx="202.974"
   sodipodi:cy="290.41501"
   sodipodi:rx="4"
   sodipodi:ry="4"
   style="fill:#ffffff;stroke:#000000;stroke-width:0.5"
   transform="matrix(1.160714,0,0,1.160714,-133.35443,-174.27469)" />
<circle
   cx="207.80701"
   cy="302.112"
   r="4"
   id="circle75"
   sodipodi:cx="207.80701"
   sodipodi:cy="302.112"
   sodipodi:rx="4"
   sodipodi:ry="4"
   style="fill:#ffffff;stroke:#000000;stroke-width:0.5"
   transform="matrix(1.160714,0,0,1.160714,-133.35443,-174.27469)" />
<circle
   cx="224.47301"
   cy="306.112"
   r="4"
   id="circle77"
   sodipodi:cx="224.47301"
   sodipodi:cy="306.112"
   sodipodi:rx="4"
   sodipodi:ry="4"
   style="fill:#ffffff;stroke:#000000;stroke-width:0.5"
   transform="matrix(1.160714,0,0,1.160714,-133.35443,-174.27469)" />
<circle
   cx="250.306"
   cy="259.27802"
   r="4"
   id="circle79"
   sodipodi:cx="250.306"
   sodipodi:cy="259.27802"
   sodipodi:rx="4"
   sodipodi:ry="4"
   style="fill:#ffffff;stroke:#000000;stroke-width:0.5"
   transform="matrix(1.160714,0,0,1.160714,-133.35443,-174.27469)" />
<circle
   cx="303.45599"
   cy="265.94501"
   r="4"
   id="circle81"
   sodipodi:cx="303.45599"
   sodipodi:cy="265.94501"
   sodipodi:rx="4"
   sodipodi:ry="4"
   style="fill:#ffffff;stroke:#000000;stroke-width:0.5"
   transform="matrix(1.160714,0,0,1.160714,-133.35443,-174.27469)" />
<circle
   cx="238.675"
   cy="223.778"
   r="4"
   id="circle83"
   sodipodi:cx="238.675"
   sodipodi:cy="223.778"
   sodipodi:rx="4"
   sodipodi:ry="4"
   transform="matrix(1.160714,0,0,1.160714,-133.35443,-174.27469)" />
<circle
   cx="168.658"
   cy="234.94501"
   r="4"
   id="circle85"
   sodipodi:cx="168.658"
   sodipodi:cy="234.94501"
   sodipodi:rx="4"
   sodipodi:ry="4"
   transform="matrix(1.160714,0,0,1.160714,-133.35443,-174.27469)" />
<circle
   cx="128.875"
   cy="254.658"
   r="4"
   id="circle87"
   sodipodi:cx="128.875"
   sodipodi:cy="254.658"
   sodipodi:rx="4"
   sodipodi:ry="4"
   transform="matrix(1.160714,0,0,1.160714,-133.35443,-174.27469)" />
<circle
   cx="166.591"
   cy="259.27899"
   r="4"
   id="circle89"
   sodipodi:cx="166.591"
   sodipodi:cy="259.27899"
   sodipodi:rx="4"
   sodipodi:ry="4"
   transform="matrix(1.160714,0,0,1.160714,-133.35443,-174.27469)" />
<circle
   cx="187.278"
   cy="259.27899"
   r="4"
   id="circle91"
   sodipodi:cx="187.278"
   sodipodi:cy="259.27899"
   sodipodi:rx="4"
   sodipodi:ry="4"
   transform="matrix(1.160714,0,0,1.160714,-133.35443,-174.27469)" />
<circle
   cx="198.974"
   cy="212.785"
   r="4"
   id="circle93"
   sodipodi:cx="198.974"
   sodipodi:cy="212.785"
   sodipodi:rx="4"
   sodipodi:ry="4"
   transform="matrix(1.160714,0,0,1.160714,-133.35443,-174.27469)" />
<circle
   cx="244.412"
   cy="203.776"
   r="4"
   id="circle95"
   sodipodi:cx="244.412"
   sodipodi:cy="203.776"
   sodipodi:rx="4"
   sodipodi:ry="4"
   transform="matrix(1.160714,0,0,1.160714,-133.35443,-174.27469)" />
<circle
   cx="223.021"
   cy="173.87"
   r="4"
   id="circle97"
   sodipodi:cx="223.021"
   sodipodi:cy="173.87"
   sodipodi:rx="4"
   sodipodi:ry="4"
   transform="matrix(1.160714,0,0,1.160714,-133.35443,-174.27469)" />
<circle
   cx="265.306"
   cy="273.94501"
   r="4"
   id="circle99"
   sodipodi:cx="265.306"
   sodipodi:cy="273.94501"
   sodipodi:rx="4"
   sodipodi:ry="4"
   style="fill:#ffffff;stroke:#000000;stroke-width:0.5"
   transform="matrix(1.160714,0,0,1.160714,-133.35443,-174.27469)" />
<circle
   cx="227.64"
   cy="265.944"
   r="4"
   id="circle101"
   sodipodi:cx="227.64"
   sodipodi:cy="265.944"
   sodipodi:rx="4"
   sodipodi:ry="4"
   style="fill:#ffffff;stroke:#000000;stroke-width:0.5"
   transform="matrix(1.160714,0,0,1.160714,-133.35443,-174.27469)" />
<line
   x1="215.31129"
   y1="62.738472"
   x2="183.98131"
   y2="31.408459"
   id="line103"
   style="fill:#ffffff;stroke:#000000;stroke-width:0.29017851" />
<path
   d="m 183.9987,27.271692 5.95446,10.107497 -5.37875,-5.378748 c 0.69179,-0.690625 0.57456,-2.81125 -0.57571,-4.728749 z"
   id="path105"
   inkscape:connector-curvature="0" />
<path
   d="m 179.8445,31.425887 10.10866,5.953302 -5.37875,-5.378748 c -0.69294,0.694106 -2.81125,0.575714 -4.72991,-0.574554 z"
   id="path107"
   inkscape:connector-curvature="0" />
<line
   x1="135.22549"
   y1="76.432579"
   x2="108.53721"
   y2="49.745438"
   id="line109"
   style="fill:#ffffff;stroke:#000000;stroke-width:0.29017851" />
<path
   d="m 132.93425,69.98713 5.9533,10.107498 -5.37759,-5.378749 c 0.69179,-0.690625 0.57339,-2.810088 -0.57571,-4.728749 z"
   id="path111"
   inkscape:connector-curvature="0" />
<path
   d="m 128.77889,74.142487 10.10866,5.953302 -5.37759,-5.378749 c -0.69411,0.692946 -2.81125,0.575714 -4.73107,-0.574553 z"
   id="path113"
   inkscape:connector-curvature="0" />
<line
   x1="51.771328"
   y1="201.15247"
   x2="255.37102"
   y2="201.15247"
   id="line115"
   style="fill:#ffffff;stroke:#000000;stroke-width:0.58035702" />
<line
   x1="0.29017851"
   y1="201.15247"
   x2="23.813219"
   y2="201.15247"
   id="line117"
   style="fill:#ffffff;stroke:#000000;stroke-width:0.58035702" />
<line
   x1="138.74246"
   y1="141.96764"
   x2="150.28229"
   y2="153.50748"
   id="line119"
   style="fill:#ffffff;stroke:#000000;stroke-width:0.29017851" />
<path
   d="m 141.03371,148.41192 -5.9533,-10.1075 5.37759,5.37875 c -0.69179,0.69179 -0.57456,2.81125 0.57571,4.72875 z"
   id="path121"
   inkscape:connector-curvature="0" />
<path
   d="m 145.18907,144.25773 -10.10866,-5.95331 5.37759,5.37875 c 0.69294,-0.69411 2.81008,-0.57571 4.73107,0.57456 z"
   id="path123"
   inkscape:connector-curvature="0" />
<line
   x1="114.12024"
   y1="163.45245"
   x2="130.4422"
   y2="163.45129"
   id="line125"
   style="fill:#ffffff;stroke:#000000;stroke-width:0.29017851" />
<path
   d="m 120.29871,166.38906 -11.35525,-2.93661 7.60499,0 c -0.001,0.97848 1.58205,2.39339 3.75026,2.93661 z"
   id="path127"
   inkscape:connector-curvature="0" />
<path
   d="m 120.29988,160.51352 -11.35642,2.93893 7.60499,0 c -0.001,-0.9808 1.58089,-2.39455 3.75143,-2.93893 z"
   id="path129"
   inkscape:connector-curvature="0" />

<text
   xml:space="preserve"
   style="font-size:13.92856693px;font-style:normal;font-variant:normal;font-weight:normal;font-stretch:normal;text-align:start;line-height:125%;letter-spacing:0px;word-spacing:0px;writing-mode:lr-tb;text-anchor:start;fill:#000000;fill-opacity:1;stroke:none;font-family:Sans;-inkscape-font-specification:Sans"
   x="67.205475"
   y="48.989216"
   id="text3176"
   sodipodi:linespacing="125%"><tspan
     sodipodi:role="line"
     x="67.205475"
     y="48.989216"
     id="tspan3180"><tspan
       dx="0 0 0 0 0 0 0 0 0 0 0 0 0 0 0 0 0 0 0 0 0 0 0 0 0 0 0 0 0 0 -0.73197049"
       id="tspan3247"
       style="font-size:13.92856693px;font-style:normal;font-variant:normal;font-weight:normal;font-stretch:normal;text-align:start;line-height:125%;writing-mode:lr-tb;text-anchor:start;font-family:Sans;-inkscape-font-specification:Sans">$\langle \mathbf{w},\mathbf{x} \rangle+w_0=-1$</tspan></tspan></text>
<flowRoot
   xml:space="preserve"
   id="flowRoot3201"
   style="font-size:40px;font-style:normal;font-weight:normal;line-height:125%;letter-spacing:0px;word-spacing:0px;fill:#000000;fill-opacity:1;stroke:none;font-family:Sans"
   transform="matrix(1.160714,0,0,1.160714,-133.35443,-174.27469)"><flowRegion
     id="flowRegion3203"><rect
       id="rect3205"
       width="10.089934"
       height="85.13382"
       x="530.35217"
       y="107.84727" /></flowRegion><flowPara
     id="flowPara3207"></flowPara></flowRoot><text
   xml:space="preserve"
   style="font-size:13.92856693px;font-style:normal;font-variant:normal;font-weight:normal;font-stretch:normal;text-align:start;line-height:125%;letter-spacing:0px;word-spacing:0px;writing-mode:lr-tb;text-anchor:start;fill:#000000;fill-opacity:1;stroke:none;font-family:Sans;-inkscape-font-specification:Sans"
   x="136.74269"
   y="165.3725"
   id="text3249"
   sodipodi:linespacing="125%"><tspan
     sodipodi:role="line"
     id="tspan3251"
     x="136.74269"
     y="165.3725">$\langle \mathbf{w},\mathbf{x} \rangle+w_0=1$</tspan></text>
<text
   xml:space="preserve"
   style="font-size:13.92856693px;font-style:normal;font-variant:normal;font-weight:normal;font-stretch:normal;text-align:start;line-height:125%;letter-spacing:0px;word-spacing:0px;writing-mode:lr-tb;text-anchor:start;fill:#000000;fill-opacity:1;stroke:none;font-family:Sans;-inkscape-font-specification:Sans"
   x="225.17928"
   y="92.626472"
   id="text3249-1"
   sodipodi:linespacing="125%"><tspan
     sodipodi:role="line"
     id="tspan3251-4"
     x="225.17928"
     y="92.626472">$\mathbf{w},\mathbf{x}\in \mathbb{R}^p, w_0 \in \mathbb{R}$</tspan></text>
<flowRoot
   xml:space="preserve"
   id="flowRoot3302"
   style="font-size:40px;font-style:normal;font-weight:normal;line-height:125%;letter-spacing:0px;word-spacing:0px;fill:#000000;fill-opacity:1;stroke:none;font-family:Sans"
   transform="matrix(1.160714,0,0,1.160714,-133.35443,-174.27469)"><flowRegion
     id="flowRegion3304"><rect
       id="rect3306"
       width="378.37256"
       height="293.23871"
       x="69.368301"
       y="136.22522" /></flowRegion><flowPara
     id="flowPara3308"></flowPara></flowRoot><text
   xml:space="preserve"
   style="font-size:13.92856693px;font-style:normal;font-variant:normal;font-weight:normal;font-stretch:normal;text-align:start;line-height:125%;letter-spacing:0px;word-spacing:0px;writing-mode:lr-tb;text-anchor:start;fill:#000000;fill-opacity:1;stroke:none;font-family:Sans;-inkscape-font-specification:Sans"
   x="209.60609"
   y="32.441822"
   id="text3310"
   sodipodi:linespacing="125%"><tspan
     sodipodi:role="line"
     id="tspan3312"
     x="209.60609"
     y="32.441822">$\frac{2}{\|\mathbf{w}\|}$</tspan></text>
<text
   xml:space="preserve"
   style="font-size:11.60713959px;font-style:normal;font-variant:normal;font-weight:normal;font-stretch:normal;text-align:start;line-height:125%;letter-spacing:0px;word-spacing:0px;writing-mode:lr-tb;text-anchor:start;fill:#000000;fill-opacity:1;stroke:none;font-family:Sans;-inkscape-font-specification:Sans"
   x="126.44845"
   y="213.97498"
   id="text3314"
   sodipodi:linespacing="125%"><tspan
     sodipodi:role="line"
     id="tspan3316"
     x="126.44845"
     y="213.97498">$y=1$</tspan></text>
<text
   xml:space="preserve"
   style="font-size:11.60713959px;font-style:normal;font-variant:normal;font-weight:normal;font-stretch:normal;text-align:start;line-height:125%;letter-spacing:0px;word-spacing:0px;writing-mode:lr-tb;text-anchor:start;fill:#000000;fill-opacity:1;stroke:none;font-family:Sans;-inkscape-font-specification:Sans"
   x="25.618593"
   y="147.058"
   id="text3318"
   sodipodi:linespacing="125%"><tspan
     sodipodi:role="line"
     id="tspan3320"
     x="25.618593"
     y="147.058">$y=-1$</tspan></text>
<text
   xml:space="preserve"
   style="font-size:46.42855835px;font-style:normal;font-weight:normal;line-height:125%;letter-spacing:0px;word-spacing:0px;fill:#000000;fill-opacity:1;stroke:none;font-family:Sans"
   x="221.05508"
   y="303.71695"
   id="text3341"
   sodipodi:linespacing="125%"><tspan
     sodipodi:role="line"
     id="tspan3343"
     x="221.05508"
     y="303.71695" /></text>
<text
   xml:space="preserve"
   style="font-size:11.60713959px;font-style:normal;font-variant:normal;font-weight:normal;font-stretch:normal;text-align:start;line-height:125%;letter-spacing:0px;word-spacing:0px;writing-mode:lr-tb;text-anchor:start;fill:#000000;fill-opacity:1;stroke:none;font-family:Sans;-inkscape-font-specification:Sans"
   x="-133.52754"
   y="179.35947"
   id="text3345"
   sodipodi:linespacing="125%"
   transform="matrix(0.70710678,-0.70710678,0.70710678,0.70710678,0,0)"><tspan
     sodipodi:role="line"
     id="tspan3347"
     x="-133.52754"
     y="179.35947" /></text>
<text
   xml:space="preserve"
   style="font-size:11.60713959px;font-style:normal;font-variant:normal;font-weight:normal;font-stretch:normal;text-align:start;line-height:125%;letter-spacing:0px;word-spacing:0px;writing-mode:lr-tb;text-anchor:start;fill:#000000;fill-opacity:1;stroke:none;font-family:Sans;-inkscape-font-specification:Sans"
   x="-128.49487"
   y="172.41228"
   id="text3368"
   sodipodi:linespacing="125%"
   transform="matrix(0.70710678,-0.70710678,0.70710678,0.70710678,0,0)"><tspan
     sodipodi:role="line"
     id="tspan3370"
     x="-128.49487"
     y="172.41228">$\langle \mathbf{w},\mathbf{x} \rangle+w_0=0$</tspan></text>
</svg>